<?xml version="1.0" encoding="utf-8"?>
<!-- Generator: Adobe Illustrator 21.1.0, SVG Export Plug-In . SVG Version: 6.00 Build 0)  -->
<svg version="1.1" id="Layer_1" xmlns="http://www.w3.org/2000/svg" xmlns:xlink="http://www.w3.org/1999/xlink" x="0px" y="0px"
	 width="773px" height="1062.4px" viewBox="0 0 773 1062.4" style="enable-background:new 0 0 773 1062.4;" xml:space="preserve">
<style type="text/css">
	.st0{clip-path:url(#SVGID_2_);fill:none;stroke:#3673B9;stroke-width:2;stroke-miterlimit:10;}
	.st1{clip-path:url(#SVGID_2_);fill:none;stroke:#3FBDBE;stroke-miterlimit:10;}
	.st2{clip-path:url(#SVGID_2_);fill:none;stroke:#004E9F;stroke-miterlimit:10;}
	.st3{clip-path:url(#SVGID_2_);fill:none;stroke:#E32927;stroke-miterlimit:10;}
	.st4{clip-path:url(#SVGID_2_);fill:none;stroke:#AACF43;stroke-miterlimit:10;}
	.st5{clip-path:url(#SVGID_2_);fill:none;stroke:#AACF43;stroke-width:2;stroke-miterlimit:10;}
	.st6{clip-path:url(#SVGID_2_);fill:none;stroke:#548F35;stroke-width:2;stroke-miterlimit:10;}
	.st7{clip-path:url(#SVGID_2_);fill:none;stroke:#3FBDBE;stroke-width:2;stroke-miterlimit:10;}
	.st8{clip-path:url(#SVGID_2_);fill:none;stroke:#B9D53D;stroke-miterlimit:10;}
	.st9{clip-path:url(#SVGID_2_);fill:none;stroke:#75C044;stroke-miterlimit:10;}
	.st10{clip-path:url(#SVGID_2_);fill:none;stroke:#75C044;stroke-width:2;stroke-miterlimit:10;}
	.st11{clip-path:url(#SVGID_2_);fill:none;stroke:#3656A6;stroke-width:2;stroke-miterlimit:10;}
	.st12{clip-path:url(#SVGID_2_);fill:none;stroke:#1996B1;stroke-miterlimit:10;}
	.st13{clip-path:url(#SVGID_4_);fill:#1E69B4;}
	.st14{fill:#9ACA3D;}
	.st15{font-family:'OpenSans-Light';}
	.st16{font-size:33.8128px;}
	.st17{clip-path:url(#SVGID_6_);fill:#9ACA3D;}
	.st18{clip-path:url(#SVGID_6_);fill:none;stroke:#000000;stroke-width:0.25;stroke-miterlimit:10;}
	.st19{fill:none;}
</style>
<g>
	<defs>
		<rect id="SVGID_1_" x="0.1" y="-46.1" width="780.5" height="1089.1"/>
	</defs>
	<clipPath id="SVGID_2_">
		<use xlink:href="#SVGID_1_"  style="overflow:visible;"/>
	</clipPath>
	<path class="st0" d="M97.2,580.1c-28.1-109.6,55.5-230.5,186.8-270c131.3-39.5,260.5,17.4,288.6,127.1
		c28.1,109.6-55.5,230.5-186.8,270C254.5,746.6,125.3,689.8,97.2,580.1z"/>
	<ellipse class="st1" cx="253.1" cy="471.8" rx="309.6" ry="250.2"/>
	<ellipse class="st1" cx="370" cy="486.7" rx="309.6" ry="250.2"/>
	<path class="st2" d="M6,525.1c-14.6-142.3,116.2-274.8,292.2-296c176-21.2,330.6,76.9,345.2,219.1
		c14.6,142.3-116.2,274.8-292.2,296C175.2,765.5,20.6,667.4,6,525.1z"/>
	<path class="st2" d="M-21.4,543.3C-36.6,396,98.9,258.8,281.1,236.8c182.2-22,342.2,79.6,357.4,226.9
		C653.7,610.9,518.2,748.1,336,770.1C153.8,792.1-6.2,690.5-21.4,543.3z"/>
	<path class="st3" d="M-8.7,328.9c55.8-139.4,240.8-186.8,413.2-105.9C577,303.8,671.7,482.4,615.9,621.7
		c-55.7,139.4-240.8,186.8-413.2,105.9C30.2,646.8-64.4,468.2-8.7,328.9z"/>
	<path class="st3" d="M39.9,579.6c-26.3-111.1,63.9-232,201.3-270.1c137.4-38.1,270.1,21.1,296.4,132.1
		c26.3,111.1-63.9,232-201.3,270.1C198.8,749.8,66.1,690.6,39.9,579.6z"/>
	<path class="st4" d="M-21.5,454c0.5-155,156.4-280.2,348.2-279.5c191.8,0.7,347,126.9,346.5,281.9
		c-0.5,155-156.4,280.2-348.2,279.5C133.2,735.3-22,609-21.5,454z"/>
	<path class="st5" d="M60.2,623.9C8.4,488.2,102.6,317.3,270.5,242.2c167.9-75.1,346-26,397.8,109.8
		c51.8,135.7-42.4,306.6-210.3,381.7C290,808.7,111.9,759.6,60.2,623.9z"/>
	<path class="st6" d="M-68.1,689.2c-65.4-131.8,13.8-315.5,176.8-410.4C271.8,184,457,213.9,522.4,345.7
		c65.4,131.8-13.8,315.5-176.9,410.4C182.5,850.9-2.7,821-68.1,689.2z"/>
	<path class="st5" d="M-111,522.5c-11-137.2,126.8-262.1,307.8-279.1c181-17,336.6,80.5,347.6,217.6
		c11,137.2-126.9,262.1-307.8,279.1C55.6,757.1-100.1,659.6-111,522.5z"/>
	<path class="st2" d="M70.3,607.3c-37.5-113.6,46.1-249.7,186.6-304c140.5-54.3,284.8-6.3,322.3,107.2
		c37.5,113.6-46.1,249.7-186.6,304C252,768.9,107.8,720.9,70.3,607.3z"/>
	<path class="st1" d="M-330.4,361.9c20.9-193.5,239.8-315.7,488.7-273c249,42.7,433.8,234.2,412.9,427.6
		C550.3,710,331.5,832.3,82.5,789.6C-166.5,746.8-351.3,555.4-330.4,361.9z"/>
	<path class="st7" d="M-63.5,471.2c12.8-137.5,161.9-235.2,333-218.1C440.5,270.1,568.8,395.5,556,533
		c-12.8,137.5-161.9,235.2-333,218.1C51.9,734-76.4,608.7-63.5,471.2z"/>
	<path class="st2" d="M-263.3,390.3C-247.7,188.1-26.2,51.6,231.5,85.4c257.7,33.8,454,225.1,438.4,427.3
		c-15.6,202.2-237.1,338.7-494.8,304.9C-82.6,783.9-278.8,592.6-263.3,390.3z"/>
	<path class="st2" d="M61.3,476.3c3.8-117.4,125.4-209,271.5-204.6C479,276,594.5,374.7,590.7,492c-3.8,117.4-125.4,209-271.5,204.7
		C173,692.4,57.6,593.7,61.3,476.3z"/>
	<path class="st2" d="M-47.6,382.8C-23.3,247,133.8,164.5,303.3,198.6C472.7,232.8,590.3,370.6,566,506.4
		c-24.3,135.9-181.4,218.4-350.8,184.2C45.7,656.5-71.9,518.7-47.6,382.8z"/>
	<path class="st2" d="M-134.2,499.4c-19.2-203,130-387.2,333.1-411.4c203.1-24.2,383.4,120.8,402.5,323.8
		c19.2,203-130,387.2-333.1,411.4C65.2,847.4-115,702.5-134.2,499.4z"/>
	<path class="st4" d="M-308.5,365C-283.4,134.1-30.2-25.6,257.1,8.2c287.3,33.9,499.8,248.5,474.7,479.4
		c-25.1,230.9-278.4,390.6-565.6,356.8C-121.2,810.5-333.7,595.9-308.5,365z"/>
	<path class="st4" d="M-134.7,627.3C-189.1,425.1-53.2,203.8,168.7,133c221.9-70.8,445.9,35.7,500.3,237.8
		c54.4,202.2-81.4,423.5-303.4,494.3C143.7,935.9-80.3,829.5-134.7,627.3z"/>
	<path class="st2" d="M-159.2,392.8c33.1-169.2,231.3-267.9,442.7-220.4C495,219.8,639.6,395.5,606.6,564.7
		c-33.1,169.2-231.3,267.9-442.7,220.4C-47.6,737.6-192.2,562-159.2,392.8z"/>
	<path class="st2" d="M-147.2,653.5c-50-164.3,75.4-357.5,280.2-431.6c204.8-74.1,411.4-1.1,461.5,163.2
		c50,164.3-75.4,357.5-280.3,431.6C109.5,890.9-97.1,817.8-147.2,653.5z"/>
	<path class="st2" d="M-60.5,600.4C-98.1,432.3,41.3,250.7,251,194.7c209.7-56,410.2,34.9,447.8,203
		C736.4,565.8,597,747.5,387.3,803.4C177.6,859.4-22.9,768.5-60.5,600.4z"/>
	<path class="st2" d="M-56.7,327.1c42.8-127.9,207-181.3,366.9-119.4c159.9,61.9,254.8,215.8,212,343.6
		c-42.8,127.9-207,181.3-366.9,119.4C-4.5,608.8-99.5,455-56.7,327.1z"/>
	<ellipse class="st8" cx="355.7" cy="485.4" rx="213.9" ry="231.6"/>
	<ellipse class="st8" cx="357.6" cy="485.4" rx="213.9" ry="231.6"/>
	<ellipse class="st8" cx="342.8" cy="491.7" rx="208.1" ry="225.3"/>
	<path class="st0" d="M80.4,516.5c0-128.2,109.9-232.2,245.6-232.2c135.6,0,245.6,104,245.6,232.2S461.6,748.7,325.9,748.7
		C190.3,748.7,80.4,644.7,80.4,516.5z"/>
	<path class="st2" d="M109.3,561.8c-26.1-101.6,51.5-213.7,173.2-250.3C404.2,275,524,327.7,550,429.4
		c26.1,101.6-51.5,213.7-173.2,250.3C255.1,716.2,135.3,663.5,109.3,561.8z"/>
	<path class="st2" d="M168.9,542.4C140.6,432,201.6,317.2,305.2,286.1c103.6-31.1,210.5,33.2,238.8,143.6
		c28.3,110.4-32.7,225.2-136.3,256.4C304.2,717.2,197.3,652.9,168.9,542.4z"/>
	<path class="st0" d="M95.3,580.1c-28.1-109.6,55.5-230.5,186.8-270c131.3-39.5,260.5,17.4,288.6,127.1
		c28.1,109.6-55.5,230.5-186.8,270C252.6,746.6,123.4,689.8,95.3,580.1z"/>
	<ellipse class="st8" cx="348.2" cy="503.7" rx="213.9" ry="231.6"/>
	<ellipse class="st8" cx="295.1" cy="494.7" rx="244.7" ry="222.6"/>
	<ellipse class="st0" cx="348.2" cy="503.7" rx="283" ry="306.5"/>
	<path class="st7" d="M-88.8,209.2C7.6,40.1,230.1-2.3,408.2,114.4c178.1,116.7,244.3,348.4,147.9,517.4
		c-96.4,169.1-318.9,211.5-497,94.8C-119,609.9-185.2,378.2-88.8,209.2z"/>
	<path class="st7" d="M82.9,336.8c65.7-115.1,219.6-142.4,343.7-61c124.2,81.4,171.6,240.7,106,355.8
		c-65.7,115.1-219.6,142.4-343.7,61C64.7,611.3,17.3,452,82.9,336.8z"/>
	<path class="st7" d="M84.8,397.7c65.7-115.1,219.6-142.4,343.7-61c124.2,81.4,171.6,240.7,105.9,355.8
		C468.8,807.6,315,835,190.8,753.6C66.6,672.1,19.2,512.8,84.8,397.7z"/>
	<path class="st7" d="M112.6,440.9C115.3,328.4,215.3,239,336,241.2c120.7,2.2,216.5,95.2,213.8,207.7
		c-2.7,112.5-102.7,201.9-223.4,199.8C205.7,646.4,110,553.5,112.6,440.9z"/>
	<path class="st7" d="M-100.5,523c3.8-159.2,152.1-285.6,331.2-282.3c179.1,3.3,321.2,135,317.4,294.2
		C544.4,694.1,396.1,820.5,217,817.2C37.9,813.9-104.3,682.2-100.5,523z"/>
	<path class="st7" d="M141.1,357.1c65.7-115.1,219.6-142.4,343.7-61c124.2,81.4,171.6,240.7,106,355.8
		C525.1,767,371.2,794.4,247,713C122.8,631.6,75.4,472.3,141.1,357.1z"/>
	<path class="st7" d="M83.2,427.7c22.7-112.6,139.2-181.6,260.3-154.2c121,27.4,200.7,140.9,178,253.5
		c-22.7,112.6-139.2,181.6-260.3,154.2S60.5,540.3,83.2,427.7z"/>
	<path class="st2" d="M-63.2,601.4c-31.3-139.8,84.7-290.8,259-337.3c174.3-46.5,341,29,372.3,168.8
		c31.3,139.8-84.7,290.8-259,337.3C134.8,816.7-31.9,741.1-63.2,601.4z"/>
	<path class="st0" d="M115.6,575.3c-34.5-85.7,27.7-191.5,138.9-236.2c111.2-44.7,229.2-11.4,263.7,74.3
		c34.5,85.7-27.7,191.5-138.9,236.2C268.2,694.3,150.1,661,115.6,575.3z"/>
	<path class="st2" d="M194.9,507.7C168.4,390.3,248,272.3,372.8,244c124.8-28.2,247.4,44.1,274,161.4
		c26.6,117.4-53.1,235.4-177.8,263.6C344.2,697.4,221.5,625.1,194.9,507.7z"/>
	<path class="st3" d="M97.7,555.9c-33-87.1,34.9-193.5,151.5-237.7c116.7-44.2,238-9.4,271,77.6c33,87.1-34.9,193.5-151.5,237.7
		C252,677.7,130.7,643,97.7,555.9z"/>
	<path class="st6" d="M-40.4,507.6C-40.5,390.4,86.7,295.1,243.9,295C401,294.8,528.5,389.7,528.6,507
		c0.1,117.3-127.2,212.5-284.3,212.7C87.2,719.9-40.3,624.9-40.4,507.6z"/>
	<path class="st2" d="M94.6,599.9c-43-88,17.7-206,135.6-263.6c117.9-57.6,248.3-33,291.3,55c43,88-17.7,206-135.6,263.6
		C268,712.5,137.6,687.9,94.6,599.9z"/>
	
		<ellipse transform="matrix(0.9938 -0.1113 0.1113 0.9938 -51.4016 38.8464)" class="st8" cx="322.3" cy="479.9" rx="183" ry="183"/>
	<path class="st2" d="M156.8,534.8c-32-79.5,25.7-177.5,128.7-219S498,305.2,530,384.7c32,79.5-25.7,177.5-128.7,219
		C298.2,645.1,188.7,614.3,156.8,534.8z"/>
	<path class="st2" d="M174.9,537.8c-34.7-86.4,8.2-185,95.9-220.3c87.7-35.3,187,6.2,221.7,92.5c34.7,86.4-8.2,185-95.9,220.3
		C308.9,665.6,209.7,624.2,174.9,537.8z"/>
	
		<ellipse transform="matrix(0.9997 -2.513622e-02 2.513622e-02 0.9997 -11.4851 9.4797)" class="st0" cx="371.3" cy="461.6" rx="216.9" ry="167.3"/>
	<path class="st0" d="M116.6,474.5c-3.4-92.3,90.9-170.8,210.6-175.2c119.7-4.4,219.6,66.8,223,159.2
		c3.4,92.4-90.9,170.8-210.6,175.2C219.9,638.2,120,566.9,116.6,474.5z"/>
	<path class="st8" d="M141.2,510c-11.6-103.2,62.8-196.3,166-207.9c103.2-11.6,196.3,62.8,207.9,166
		c11.6,103.2-62.8,196.3-166,207.9C245.8,687.5,152.8,613.2,141.2,510z"/>
	<path class="st7" d="M168.5,486.3c-7.9-91.1,71.5-173,177.2-183.1c105.7-10,197.8,55.6,205.6,146.7c7.8,91.1-71.5,173-177.2,183.1
		C268.4,643.1,176.4,577.4,168.5,486.3z"/>
	<path class="st9" d="M133.8,419c47-99.3,179-136.5,294.9-82.9C544.6,389.7,600.5,513.6,553.5,613c-47,99.3-179,136.5-294.9,82.9
		C142.7,642.3,86.8,518.4,133.8,419z"/>
	<path class="st10" d="M183.3,415.7c47-99.3,179-136.5,294.9-82.9c115.9,53.6,171.7,177.5,124.8,276.8
		c-47,99.3-179,136.5-294.9,82.9C192.1,639,136.3,515.1,183.3,415.7z"/>
	<path class="st2" d="M94.3,561.3c-35-102.6,40.2-221.4,167.9-265.4c127.7-43.9,259.6,3.7,294.6,106.3
		c35,102.6-40.2,221.5-167.9,265.4C261.2,711.6,129.3,664,94.3,561.3z"/>
	<path class="st2" d="M163.6,619.6c-55.7-79.3-25.2-201.5,68-272.8c93.2-71.3,214-64.8,269.6,14.5c55.7,79.3,25.2,201.5-68,272.8
		C340,705.4,219.3,698.9,163.6,619.6z"/>
	<path class="st2" d="M208.8,583.3c-60.5-86.2-45.2-205.3,34.2-266c79.4-60.7,192.7-40,253.2,46.2c60.5,86.2,45.2,205.3-34.2,266
		C382.7,690.2,269.3,669.5,208.8,583.3z"/>
	<path class="st7" d="M127.1,514C92.7,415.9,149.9,306,255,268.5c105-37.5,218.1,11.6,252.5,109.7c34.4,98.1-22.9,208-127.9,245.5
		C274.5,661.2,161.4,612.1,127.1,514z"/>
	<path class="st7" d="M97.3,512.2C80.2,407.5,158.4,309.8,271.9,294c113.5-15.8,219.4,56.3,236.5,161
		c17.1,104.7-61.1,202.3-174.6,218.1C220.2,688.9,114.4,616.9,97.3,512.2z"/>
	<path class="st0" d="M173.5,629.1c-57.8-62.8-38.5-174.5,43-249.3c81.5-74.9,194.4-84.6,252.1-21.8c57.7,62.8,38.5,174.5-43,249.4
		C344.1,682.2,231.2,692,173.5,629.1z"/>
	<path class="st2" d="M220,544.9C158.7,452.1,189,324.1,287.6,259c98.6-65.1,228.2-42.6,289.4,50.2C638.3,402,608,529.9,509.4,595
		C410.8,660.1,281.2,637.6,220,544.9z"/>
	<path class="st3" d="M151.7,618.2c-56.9-64.5-33-178.6,53.4-254.8c86.4-76.2,202.6-85.7,259.5-21.3c56.9,64.5,33,178.6-53.4,254.8
		C324.7,673.2,208.6,682.7,151.7,618.2z"/>
	<path class="st2" d="M163.3,657.2c-65.9-62-51.9-183.8,31.2-272c83.1-88.2,203.8-109.5,269.7-47.5c65.9,62,51.9,183.8-31.2,272
		C349.9,698,229.2,719.2,163.3,657.2z"/>
	<path class="st8" d="M170.5,556.2c-42.5-83.1-9.5-184.9,73.6-227.4c83.1-42.5,184.9-9.5,227.4,73.6c42.5,83.1,9.5,184.9-73.6,227.4
		C314.7,672.3,212.9,639.3,170.5,556.2z"/>
	<path class="st2" d="M195.8,580.7c-53.5-58.3-35.7-161.8,39.8-231.2c75.6-69.4,180.2-78.5,233.8-20.2
		c53.5,58.3,35.7,161.8-39.8,231.2C354,629.9,249.3,639,195.8,580.7z"/>
	<path class="st2" d="M212.5,577.4c-58.2-63.3-53.2-162.5,11.1-221.6c64.3-59.1,163.6-55.6,221.8,7.7
		c58.2,63.3,53.2,162.5-11.1,221.6C370,644.2,270.7,640.7,212.5,577.4z"/>
	<path class="st11" d="M201,530.1c-36.4-79.3,17.1-181.7,119.5-228.6c102.4-47,214.9-20.8,251.3,58.5
		c36.4,79.3-17.1,181.7-119.5,228.6C349.9,635.6,237.4,609.4,201,530.1z"/>
	<path class="st0" d="M171.7,522.9c-32.1-79.1,24.9-176.9,127.4-218.6C401.7,262.7,510.8,293,543,372.1
		C575.1,451.1,518,549,415.5,590.6C313,632.3,203.9,602,171.7,522.9z"/>
	<path class="st0" d="M141.5,541.7c-33.1-78.7,22.8-177.2,124.9-220.1c102-42.9,211.5-13.8,244.6,64.8
		c33.1,78.7-22.8,177.2-124.9,220.1C284,649.5,174.5,620.4,141.5,541.7z"/>
	<path class="st8" d="M174.3,564.3c-43.7-85.4-9.8-190.1,75.7-233.7c85.4-43.7,190.1-9.8,233.7,75.7c43.7,85.4,9.8,190.1-75.7,233.7
		C322.6,683.6,217.9,649.8,174.3,564.3z"/>
	<path class="st7" d="M190.2,535c-36.5-76.1,5.3-172.8,93.4-216c88.1-43.2,189-16.4,225.5,59.7c36.5,76.1-5.4,172.8-93.4,216
		C327.6,637.9,226.6,611.1,190.2,535z"/>
	<path class="st10" d="M179.9,469.2c8.2-101.2,110.2-176.3,227.8-167.8c117.6,8.5,206.3,97.4,198.1,198.5
		C597.6,601.1,495.6,676.2,378,667.7C260.4,659.2,171.7,570.4,179.9,469.2z"/>
	<path class="st2" d="M12.3,569.7c-16.8-115.6,96.1-228.2,252.3-251.6C420.8,294.7,561,369.5,577.9,485
		c16.8,115.6-96.1,228.2-252.3,251.6C169.4,760,29.2,685.3,12.3,569.7z"/>
	<path class="st1" d="M-289.3,471.2c0-154.1,200.2-279,447.3-279c247,0,447.3,124.9,447.3,279c0,154.1-200.3,278.9-447.3,278.9
		C-89,750.2-289.3,625.3-289.3,471.2z"/>
	<path class="st2" d="M-199,530.6c-21.1-158.6,167.8-306.3,422.1-330c254.3-23.7,477.5,85.7,498.7,244.3
		c21.1,158.6-167.8,306.3-422.1,330C45.4,798.6-177.9,689.2-199,530.6z"/>
	<path class="st2" d="M-238.6,550.9c-21.9-164.2,173.8-317.1,437-341.6c263.2-24.5,494.4,88.7,516.2,252.9
		c21.9,164.2-173.8,317.1-437,341.6C14.4,828.3-216.7,715-238.6,550.9z"/>
	<path class="st3" d="M-220.2,311.9c80.5-155.4,347.8-208.2,596.9-118.1C625.8,283.9,762.5,483,682,638.3
		C601.4,793.7,334.2,846.6,85.1,756.4C-164,666.3-300.7,467.2-220.2,311.9z"/>
	<path class="st3" d="M-150.1,591.3c-37.9-123.8,92.3-258.6,290.8-301c198.5-42.5,390.2,23.5,428.1,147.3
		c37.9,123.8-92.3,258.6-290.8,301C79.5,781.1-112.1,715.1-150.1,591.3z"/>
	<path class="st5" d="M-319.2,426.5c-8-168.6,192.9-288.7,448.7-268.4c255.8,20.4,469.6,173.5,477.6,342
		c8,168.5-192.9,288.7-448.7,268.3C-97.4,748.2-311.2,595.1-319.2,426.5z"/>
	<path class="st6" d="M-306,713.6c-94.5-146.9,19.9-351.7,255.5-457.5c235.5-105.7,503.1-72.4,597.5,74.5
		c94.5,146.9-19.9,351.7-255.5,457.5C55.9,893.8-211.6,860.5-306,713.6z"/>
	<path class="st5" d="M-368,527.7c-15.9-152.9,183.2-292.2,444.7-311.2c261.4-18.9,486.2,89.7,502.1,242.6
		C594.6,612,395.5,751.4,134,770.3C-127.4,789.2-352.2,680.6-368,527.7z"/>
	<path class="st2" d="M-106.1,622.2c-54.1-126.6,66.6-278.3,269.5-338.9s411.4-7.1,465.5,119.5c54.1,126.6-66.6,278.3-269.5,338.9
		C156.4,802.4-52,748.8-106.1,622.2z"/>
	<path class="st7" d="M-299.5,470.5c18.5-153.3,233.9-262.2,481-243.1c247.1,19,432.4,158.7,413.9,312
		c-18.5,153.3-233.9,262.2-481,243.1C-132.7,763.5-318,623.8-299.5,470.5z"/>
	<path class="st12" d="M-508.6,699.1C-580.4,490.9-365.6,255.6-29,173.6c336.7-82,667.8,20.3,739.6,228.5
		c71.8,208.2-142.9,443.5-479.6,525.5C-105.6,1009.6-436.8,907.3-508.6,699.1z"/>
	<path class="st12" d="M-394.6,544.1C-452.3,301.2-253.6,70,49.3,27.6c302.9-42.4,595.3,120.1,653,362.9
		c57.7,242.8-141,474-443.9,516.4C-44.5,949.4-336.8,786.9-394.6,544.1z"/>
	<path class="st2" d="M-437.6,383.1c47.7-188.6,334.1-298.7,639.5-245.7c305.5,52.9,514.4,248.8,466.6,437.4
		C620.8,763.4,334.5,873.4,29,820.5C-276.4,767.5-485.4,571.7-437.6,383.1z"/>
	<path class="st2" d="M-420.3,676.1c-72.3-183.1,109-398.5,404.8-481.2c295.9-82.6,594.3-1.2,666.6,181.9
		c72.3,183.1-109,398.5-404.8,481.2C-49.5,940.6-348,859.2-420.3,676.1z"/>
	<path class="st2" d="M-510.2,554.4c-27.5-206.1,183.5-385.7,471.3-401.1c287.8-15.4,543.3,139.1,570.8,345.3
		c27.5,206.1-183.5,385.7-471.3,401.1C-227.1,915.1-482.7,760.5-510.2,554.4z"/>
	<path class="st2" d="M-471.6,308.4c74-170.6,358-242,634.4-159.3C439.2,231.7,603.4,437,529.4,607.6
		c-73.9,170.6-358,242-634.4,159.3C-381.4,684.3-545.6,479.1-471.6,308.4z"/>
	<path class="st8" d="M-2.8,486.4c0-142.6,138.3-258.2,308.9-258.2c170.6,0,309,115.6,309,258.2c0,142.6-138.3,258.2-309,258.2
		C135.6,744.6-2.8,629-2.8,486.4z"/>
	<ellipse class="st8" cx="308.9" cy="486.4" rx="309" ry="258.2"/>
	<path class="st8" d="M-13.1,493.4c0-138.7,134.6-251.1,300.6-251.1c166,0,300.6,112.4,300.6,251.1c0,138.7-134.6,251.1-300.6,251.1
		C121.5,744.6-13.1,632.1-13.1,493.4z"/>
	<path class="st0" d="M-91.6,521c0-142.9,158.8-258.8,354.7-258.8c195.9,0,354.7,115.9,354.7,258.8c0,142.9-158.8,258.8-354.7,258.8
		C67.2,779.8-91.6,663.9-91.6,521z"/>
	<path class="st2" d="M-49.8,571.6c-37.6-113.3,74.4-238.2,250.2-279c175.8-40.8,348.9,18,386.5,131.3
		c37.6,113.3-74.4,238.2-250.2,279C160.8,743.7-12.2,684.9-49.8,571.6z"/>
	<path class="st0" d="M-70,592C-110.6,469.7,10.2,335,199.8,291c189.6-44,376.3,19.4,416.9,141.6c40.6,122.2-80.2,256.9-269.8,300.9
		C157.2,777.6-29.4,714.2-70,592z"/>
	<ellipse class="st8" cx="295.3" cy="506.8" rx="309" ry="258.2"/>
	<ellipse class="st8" cx="218.6" cy="496.7" rx="353.4" ry="248.1"/>
	<ellipse class="st8" cx="199.6" cy="496.3" rx="344.4" ry="324.9"/>
	<ellipse class="st0" cx="344.3" cy="478.9" rx="324.9" ry="307.1"/>
	<path class="st7" d="M-359.7,398.3C-311.2,201.8-70.6,57.4,177.7,75.7c248.3,18.4,410.3,192.5,361.8,389
		C490.9,661.2,250.4,805.6,2.1,787.3C-246.2,768.9-408.2,594.8-359.7,398.3z"/>
	<path class="st7" d="M-87.9,320.8C7,192.4,229.3,162,408.6,252.7c179.4,90.7,247.9,268.3,153,396.6
		c-94.8,128.3-317.1,158.8-496.5,68C-114.2,626.7-182.7,449.1-87.9,320.8z"/>
	<path class="st7" d="M-3.9,380.8c94.8-128.3,317.1-158.8,496.5-68c179.4,90.8,247.9,268.3,153,396.6
		c-94.8,128.3-317.1,158.8-496.5,68C-30.2,686.7-98.8,509.1-3.9,380.8z"/>
	<path class="st7" d="M-87.5,422c32.8-125.5,201.1-202.5,375.9-171.9c174.8,30.6,289.9,157.1,257.1,282.6
		c-32.8,125.5-201.1,202.5-375.9,171.9C-5.2,674-120.3,547.5-87.5,422z"/>
	<path class="st2" d="M-299,615.6c-45.2-155.8,122.3-324.1,374.2-376C327,187.8,567.8,272,613,427.8
		c45.2,155.8-122.3,324.1-374.2,376C-13,855.7-253.8,771.4-299,615.6z"/>
</g>
<g>
	<defs>
		<rect id="SVGID_3_" y="-46.1" width="780.6" height="1104"/>
	</defs>
	<clipPath id="SVGID_4_">
		<use xlink:href="#SVGID_3_"  style="overflow:visible;"/>
	</clipPath>
	<path class="st13" d="M279.9,459c0-2.1-1.2-4.5-6.6-4.5c-5,0-10.5,3.8-10.5,11.6c0,3.6,1.6,6.1,6.8,6.1c2.4,0,5.1-0.4,7.4-1.2v-4.7
		c-1.8,0.6-3.7,1-5.4,1c-1.9,0-2.4-0.4-2.4-1.3v-0.4C275.2,465.5,279.9,463.6,279.9,459 M272.7,458.9c0.8,0,1.1,0.4,1.1,0.9
		c0,1.6-1.8,2.1-4.2,2.1C270.1,460.5,271,458.9,272.7,458.9"/>
	<path class="st13" d="M297.2,459c0-2.1-1.2-4.5-6.6-4.5c-5,0-10.5,3.8-10.5,11.6c0,3.6,1.6,6.1,6.8,6.1c2.4,0,5.1-0.4,7.4-1.2v-4.7
		c-1.8,0.6-3.7,1-5.4,1c-1.9,0-2.4-0.4-2.4-1.3v-0.4C292.6,465.5,297.2,463.6,297.2,459 M290,458.9c0.8,0,1.1,0.4,1.1,0.9
		c0,1.6-1.8,2.1-4.2,2.1C287.4,460.5,288.3,458.9,290,458.9"/>
	<path class="st13" d="M372.6,459.3c0-2-1.2-4.5-6.5-4.5c-4.9,0-10.3,3.8-10.3,11.4c0,3.5,1.5,5.9,6.7,5.9c2.4,0,5-0.4,7.3-1.1v-4.6
		c-1.8,0.6-3.6,1-5.3,1c-1.9,0-2.4-0.4-2.4-1.3v-0.4C368,465.6,372.6,463.8,372.6,459.3 M365.5,459.1c0.8,0,1.1,0.4,1.1,0.9
		c0,1.6-1.8,2.1-4.1,2.1C363,460.7,363.9,459.1,365.5,459.1"/>
	<path class="st13" d="M389.5,459.2c0-2-1.2-4.5-6.5-4.5c-4.9,0-10.4,3.8-10.4,11.5c0,3.6,1.6,6,6.7,6c2.4,0,5-0.4,7.3-1.1v-4.6
		c-1.8,0.6-3.7,1-5.4,1c-1.9,0-2.4-0.4-2.4-1.3v-0.4C384.9,465.6,389.5,463.7,389.5,459.2 M382.4,459c0.8,0,1.1,0.4,1.1,0.9
		c0,1.6-1.8,2.1-4.1,2.1C379.8,460.6,380.7,459,382.4,459"/>
	<path class="st13" d="M405.5,470.7c0,0-0.6,0-1.9,0.2c-1.4,0.2-4.7,0.9-4.7,0.9l2.1-10.3c0.3-1.3,0.1-1.7-0.4-1.7
		c-1.1,0-3.7,3.4-4.4,6.9l-1,5h-6.4l1.8-8.8c0.5-2.7,1-5.4,1.5-8l6.2-0.2c-0.2,0.8-0.5,2.1-1.1,3.4h0.1c1.6-2.2,3.6-3.6,6.5-3.6
		c3.7,0,4.6,2.5,4,5.5L405.5,470.7z"/>
	<path class="st13" d="M258.2,446.7l-1.5,7.8c-0.6-0.1-0.8-0.1-1.1-0.1c-7.9,0-11.8,5.6-11.8,12.2c0,3.7,1.5,5.5,4.5,5.5
		c2.5,0,4.6-1.3,6.3-3.6h0.1c-0.5,1.1-0.9,2.1-1.1,3.2h6.2c0.4-2.1,0.7-4,1.1-6.1l3.1-15.3 M255.6,460.2c-0.6,2.8-3.1,6.6-4.4,6.6
		c-0.5,0-0.7-0.4-0.7-1.3c0-2.6,1.9-5.9,4-6.2c0.5-0.1,0.9,0.1,1.2,0.2L255.6,460.2z"/>
	<path class="st13" d="M301.9,476.1l1.1-4c0.6,0.1,0.8,0.1,1.1,0.1c7.9,0,11.8-5.6,11.8-12.2c0-3.7-1.6-5.5-4.5-5.5
		c-2.5,0-4.6,1.3-6.3,3.6H305c0.5-1.1,0.8-2.1,1.1-3.2h-6.3c-0.4,2.6-0.9,5.3-1.5,8l-3.4,16.7l0.2-0.2
		C295.2,479.5,298.5,477.1,301.9,476.1 M304.1,466.4c0.6-2.8,3.1-6.6,4.4-6.6c0.5,0,0.7,0.4,0.7,1.3c0,2.6-1.8,5.8-4,6.2
		c-0.5,0.1-0.9-0.1-1.2-0.2L304.1,466.4z"/>
	<path class="st13" d="M319.6,467.3c-0.8,0-1.8-0.2-2.5-0.5l-3.7,5c3.2-0.7,9.3-1.6,12.8-1.8c1.3-1.2,1.9-2.6,1.9-4
		c0-3.6-3.6-5-3.6-6.2c0-0.6,0.5-0.8,1.7-0.8c0.6,0,1.3,0.1,2,0.3l1.2-4.6c-0.9-0.1-2-0.2-3-0.2c-5.8,0-8.5,2.6-8.5,6
		c0,3.9,3.4,4.4,3.4,6.1C321.2,467,320.7,467.3,319.6,467.3"/>
	<path class="st13" d="M347.4,471.5l1.7,0.2l0.7-3.4c1.4-7.2,3.9-8.6,5.6-8l2.4-5.8c-3.3-0.2-5,1-6.6,3.8H351
		c0.5-1.3,0.9-2.4,1.1-3.4h-6.2c-0.4,2.6-0.9,5.3-1.5,8l-1.6,8C344.3,471.1,345.6,471.3,347.4,471.5"/>
	<path class="st13" d="M340.5,470.5l0.8-4.2c-0.8,0.2-1.9,0.4-2.7,0.4c-1.5,0-2.3-0.8-2.3-2.1c0-2.2,1.1-4.9,3.8-4.9
		c0.7,0,1.8,0.2,2.4,0.5l1.1-5.5c-1.1-0.2-2.1-0.3-3.2-0.3c-6.6,0-10.9,5-10.9,11.5c0,1.6,0.4,2.9,1.1,3.9
		C334,469.9,337.3,470.1,340.5,470.5"/>
</g>
<text transform="matrix(1 0 0 1 241.6108 513.6967)" class="st14 st15 st16">OFFERTE</text>
<g>
	<defs>
		<rect id="SVGID_5_" y="-46.1" width="780.6" height="1104"/>
	</defs>
	<clipPath id="SVGID_6_">
		<use xlink:href="#SVGID_5_"  style="overflow:visible;"/>
	</clipPath>
	<path class="st17" d="M614.7,1008.9h-1.6l-0.5-6.4c0-0.5-0.1-1.1,0-1.6h0c-0.2,0.5-0.4,1.1-0.6,1.6l-2.9,6.4h-1.5l-0.6-9.5h1.3
		l0.4,6.2c0,0.6,0,1.2,0,1.8h0c0.2-0.6,0.5-1.2,0.7-1.8l2.9-6.2h1.4l0.6,6.3c0.1,0.5,0.1,1.1,0.1,1.7h0c0.2-0.5,0.4-1,0.6-1.6
		l2.8-6.4h1.3L614.7,1008.9z"/>
	<path class="st17" d="M625,1008.9h-1.2l0.9-4.5c0.2-1.1,0-1.6-0.6-1.6c-1.3,0-2.7,2.7-3.1,4.5l-0.3,1.6h-1.2l2-10.3h1.2l-0.6,3.3
		c-0.1,0.5-0.3,1.2-0.8,2.8h0c0.7-1.5,1.8-2.9,3.2-2.9c1.3,0,1.7,0.9,1.5,2.4L625,1008.9z"/>
	<path class="st17" d="M629.2,1005.9c0,0.2-0.1,0.6-0.1,0.8c0,1.1,0.4,1.4,1.5,1.4c0.7,0,1.4-0.2,2-0.4l0,1
		c-0.7,0.3-1.5,0.4-2.4,0.4c-1.6,0-2.4-0.7-2.4-2.3c0-2.7,1.5-5,3.8-5c1.5,0,2.1,0.8,2.1,1.6
		C633.7,1004.9,632.2,1005.7,629.2,1005.9 M631.5,1002.8c-1.1,0-1.9,1-2.2,2.2c2.2-0.1,3.1-0.5,3.1-1.4
		C632.5,1003.1,632.1,1002.8,631.5,1002.8"/>
	<path class="st17" d="M639.7,1003c-1.3-0.4-2.7,2.4-3,4.3l-0.3,1.6h-1.2l0.7-3.6c0.2-1.1,0.4-2.2,0.6-3.3h1.2
		c-0.1,0.6-0.3,1.3-0.7,2.6l0,0c0.8-1.7,1.6-2.9,3-2.7L639.7,1003z"/>
	<path class="st17" d="M641.9,1005.9c0,0.2-0.1,0.6-0.1,0.8c0,1.1,0.4,1.4,1.5,1.4c0.7,0,1.4-0.2,2-0.4l0,1
		c-0.7,0.3-1.5,0.4-2.4,0.4c-1.6,0-2.3-0.7-2.3-2.3c0-2.7,1.5-5,3.8-5c1.5,0,2.1,0.8,2.1,1.6
		C646.4,1004.9,644.9,1005.7,641.9,1005.9 M644.2,1002.8c-1.1,0-1.9,1-2.2,2.2c2.2-0.1,3.1-0.5,3.1-1.4
		C645.1,1003.1,644.8,1002.8,644.2,1002.8"/>
	<path class="st17" d="M652.7,1008.9h-1.2l1.3-7h1.2L652.7,1008.9z M653.8,1000.6c-0.5,0-0.8-0.4-0.8-0.8c0-0.5,0.4-0.9,0.9-0.9
		c0.5,0,0.8,0.4,0.8,0.8C654.6,1000.2,654.2,1000.6,653.8,1000.6"/>
	<path class="st17" d="M661.3,1006.4c0,0.2-0.4,2.3-0.5,2.5h-1.2c0.1-0.6,0.4-1.5,0.8-2.8l0,0c-0.5,1.1-1.6,3-3.3,3
		c-1,0-1.6-0.6-1.6-2.1c0-2.6,1.3-5.1,4.4-5.1c0.4,0,0.6,0,1,0.1l0.6-3.3h1.3L661.3,1006.4z M659.7,1002.8c-2.1,0-2.9,2.2-2.9,3.9
		c0,0.9,0.3,1.3,0.7,1.3c1.3,0,2.8-2.8,3.1-4.5l0.1-0.6C660.4,1002.9,660.1,1002.8,659.7,1002.8"/>
	<path class="st17" d="M665,1005.9c0,0.2-0.1,0.6-0.1,0.8c0,1.1,0.4,1.4,1.5,1.4c0.7,0,1.4-0.2,2-0.4l0,1c-0.7,0.3-1.5,0.4-2.4,0.4
		c-1.6,0-2.4-0.7-2.4-2.3c0-2.7,1.5-5,3.8-5c1.5,0,2.1,0.8,2.1,1.6C669.6,1004.9,668,1005.7,665,1005.9 M667.4,1002.8
		c-1.1,0-1.9,1-2.2,2.2c2.2-0.1,3.1-0.5,3.1-1.4C668.3,1003.1,667.9,1002.8,667.4,1002.8"/>
	<path class="st17" d="M676.2,1008.9H675c0.1-0.6,0.4-1.5,0.8-2.8l0,0c-0.5,1.1-1.6,3-3.3,3c-1,0-1.6-0.6-1.6-2.1
		c0-2.6,1.3-5.1,4.4-5.1c0.8,0,1.5,0.1,2.2,0.2C676.7,1006,676.5,1007.3,676.2,1008.9 M675.1,1002.8c-2.1,0-2.9,2.2-2.9,3.9
		c0,0.9,0.3,1.3,0.7,1.3c1.3,0,2.8-2.8,3.1-4.5l0.1-0.6C675.8,1002.9,675.5,1002.8,675.1,1002.8"/>
	<path class="st17" d="M683.3,1002.9c-0.3-0.1-0.7-0.2-1.1-0.2c-0.9,0-1.4,0.4-1.4,1c0,1.1,2.1,1.4,2.1,3c0,1.2-1,2.3-3,2.3
		c-0.5,0-0.8,0-1.2-0.1l0.2-1.1c0.4,0.1,0.7,0.2,1.1,0.2c0.9,0,1.5-0.4,1.5-1.1c0-1.1-2.1-1.3-2.1-3c0-1.2,1-2.1,2.8-2.1
		c0.5,0,0.8,0,1.2,0.1L683.3,1002.9z"/>
	<path class="st17" d="M692.8,1002.9c-0.3-0.1-0.7-0.2-1.1-0.2c-0.9,0-1.4,0.4-1.4,1c0,1.1,2.1,1.4,2.1,3c0,1.2-1,2.3-3,2.3
		c-0.5,0-0.8,0-1.2-0.1l0.2-1.1c0.4,0.1,0.7,0.2,1.1,0.2c0.9,0,1.5-0.4,1.5-1.1c0-1.1-2.1-1.3-2.1-3c0-1.2,1-2.1,2.8-2.1
		c0.5,0,0.8,0,1.2,0.1L692.8,1002.9z"/>
	<path class="st17" d="M700.8,1005.6c-0.1,0.3-0.6,3-0.6,3.3h-1.2c0.1-0.5,0.3-1.3,0.8-2.8h0c-0.7,1.5-1.8,2.9-3.2,2.9
		c-1.3,0-1.7-0.9-1.5-2.4l0.9-4.8h1.3l-0.9,4.5c-0.2,1.1,0,1.6,0.6,1.6c1.3,0,2.7-2.7,3.1-4.5l0.3-1.6h1.2L700.8,1005.6z"/>
	<path class="st17" d="M707.6,1003c-1.3-0.4-2.7,2.4-3,4.3l-0.3,1.6H703l0.7-3.6c0.2-1.1,0.4-2.2,0.6-3.3h1.2
		c-0.1,0.6-0.3,1.3-0.7,2.6l0,0c0.8-1.7,1.6-2.9,3-2.7L707.6,1003z"/>
	<path class="st17" d="M714.5,999.8c-0.3-0.1-0.7-0.1-1-0.1c-1,0-1.6,0.5-1.8,1.9l-0.1,0.5h1.9l-0.2,1h-1.9l-1.2,6.4
		c-0.4,2.3-1.5,3.2-3.2,3.2c-0.4,0-0.8,0-1.2-0.1l0.3-1.1c0.3,0.1,0.7,0.1,1,0.1c1,0,1.6-0.5,1.9-2.1l1.2-6.4h-1.4l0.2-1h1.4
		l0.1-0.5c0.3-1.9,1.3-2.9,3.2-2.9c0.4,0,0.8,0,1.2,0.1L714.5,999.8z"/>
	<path class="st17" d="M719,1008.9h-1.3c0.1-0.6,0.4-1.5,0.8-2.8l0,0c-0.5,1.1-1.6,3-3.3,3c-1,0-1.6-0.6-1.6-2.1
		c0-2.6,1.3-5.1,4.4-5.1c0.8,0,1.5,0.1,2.2,0.2C719.6,1006,719.3,1007.3,719,1008.9 M717.9,1002.8c-2.1,0-2.9,2.2-2.9,3.9
		c0,0.9,0.3,1.3,0.7,1.3c1.3,0,2.8-2.8,3.1-4.5l0.1-0.6C718.6,1002.9,718.3,1002.8,717.9,1002.8"/>
	<path class="st17" d="M727.1,1003.1c-0.4-0.2-0.8-0.3-1.3-0.3c-1.8,0-2.6,2-2.6,3.6c0,0.7,0.2,1.5,1.5,1.5c0.6,0,1.1-0.1,1.5-0.3
		v1.1c-0.5,0.2-1.2,0.4-1.9,0.4c-1.8,0-2.4-1-2.4-2.3c0-2.7,1.5-4.9,4-4.9c0.6,0,1,0.1,1.5,0.2L727.1,1003.1z"/>
	<path class="st17" d="M729.6,1005.9c0,0.2-0.1,0.6-0.1,0.8c0,1.1,0.4,1.4,1.5,1.4c0.7,0,1.4-0.2,2-0.4l0,1
		c-0.7,0.3-1.5,0.4-2.4,0.4c-1.6,0-2.3-0.7-2.3-2.3c0-2.7,1.5-5,3.8-5c1.5,0,2.1,0.8,2.1,1.6
		C734.2,1004.9,732.6,1005.7,729.6,1005.9 M732,1002.8c-1.1,0-1.9,1-2.2,2.2c2.2-0.1,3.1-0.5,3.1-1.4
		C732.9,1003.1,732.5,1002.8,732,1002.8"/>
	<line class="st18" x1="588.9" y1="1005.1" x2="0.1" y2="1005.1"/>
</g>
<rect x="2.1" y="-0.5" class="st19" width="769.5" height="1063.4"/>
</svg>
