<?xml version="1.0" encoding="utf-8"?>
<!-- Generator: Adobe Illustrator 16.0.0, SVG Export Plug-In . SVG Version: 6.00 Build 0)  -->
<!DOCTYPE svg PUBLIC "-//W3C//DTD SVG 1.1//EN" "http://www.w3.org/Graphics/SVG/1.1/DTD/svg11.dtd">
<svg version="1.1" id="Layer_1" xmlns="http://www.w3.org/2000/svg" xmlns:xlink="http://www.w3.org/1999/xlink" x="0px" y="0px"
	 width="595.28px" height="130.441px" viewBox="0 0 595.28 130.441" enable-background="new 0 0 595.28 130.441"
	 xml:space="preserve">
<g>
	<defs>
		<rect id="SVGID_1_" width="595.28" height="130.441"/>
	</defs>
	<clipPath id="SVGID_2_">
		<use xlink:href="#SVGID_1_"  overflow="visible"/>
	</clipPath>
	<g clip-path="url(#SVGID_2_)">
		<defs>
			<polygon id="SVGID_3_" points="595.28,-535.163 0,-534.836 0,284.311 595.28,283.984 			"/>
		</defs>
		<clipPath id="SVGID_4_">
			<use xlink:href="#SVGID_3_"  overflow="visible"/>
		</clipPath>
		<path clip-path="url(#SVGID_4_)" fill="none" stroke="#124294" stroke-width="0.6" stroke-miterlimit="10" d="M1618.367,208.53
			c-43.066-32.289-92.668-60.217-142.7-81.459C1314.066,58.464,1141.407,43.085,981.93,45.2
			c-154.02,2.041-303.762,14.273-458.924,13.566C370.145,58.069,212.721,47.169,54.045,14.245
			C-35.322-4.298-124.99-29.608-211.521-62.423l0.608-1.639"/>
		<path clip-path="url(#SVGID_4_)" fill="none" stroke="#7AB929" stroke-width="0.6" stroke-miterlimit="10" d="M1595.227,270.824
			c-35.721-29.82-76.472-56.72-119.271-79.153c-153.108-80.254-326.688-110.23-488.32-117.635
			c-156.875-7.188-309.21,0.279-465.259-4.092C368.534,65.636,211.096,52.474,52.693,18.173
			c-89.21-19.316-178.721-45.17-265.038-78.379l1.167-3.143"/>
		<path clip-path="url(#SVGID_4_)" fill="none" stroke="#1E96B5" stroke-width="1.5" stroke-miterlimit="10" d="M1562.335,359.367
			c-31.271-31.393-67.292-60.775-106.829-87.021c-142.679-94.714-313.806-141.097-479.919-159.276
			c-159.588-17.465-315.869-17.498-473.96-28.156C346.639,74.466,189.045,56.53,31.477,18.347
			c-82.428-19.975-164.857-45.33-244.48-76.779"/>
		<path clip-path="url(#SVGID_4_)" fill="none" stroke="#B3CC2A" stroke-width="0.6" stroke-miterlimit="10" d="M1531.209,443.158
			c-24.559-30.752-52.86-60.459-85.091-88.5c-58.137-50.578-127.476-94.756-203.129-128.248
			c-81.888-36.251-169.225-58.503-255.402-73.444c-164.142-28.459-326.948-35.684-489.454-52.211
			c-158.9-16.16-319.674-38.248-479.687-80.309C-59.997-0.175-138.236-25.468-213.865-56.112"/>
		<path clip-path="url(#SVGID_4_)" fill="none" stroke="#DE1C19" stroke-width="0.6" stroke-miterlimit="10" d="M1502.929,519.287
			c-17.342-28.221-37.393-56.072-61.001-83.344c-45.74-52.836-103.041-102.271-170.42-141.881
			c-80.019-47.039-171.213-77.733-261.661-99.026c-86.965-20.473-174.141-32.98-260.808-44.826
			c-82.604-11.291-165.066-21.41-247.649-32.531C336.718,95.507,170.533,69.146,6.008,22.604
			C-68.594,1.499-142.919-23.661-214.827-53.526"/>
	</g>
</g>
</svg>
