<?xml version="1.0" encoding="utf-8"?>
<!-- Generator: Adobe Illustrator 16.0.0, SVG Export Plug-In . SVG Version: 6.00 Build 0)  -->
<!DOCTYPE svg PUBLIC "-//W3C//DTD SVG 1.1//EN" "http://www.w3.org/Graphics/SVG/1.1/DTD/svg11.dtd">
<svg version="1.1" id="Layer_1" xmlns="http://www.w3.org/2000/svg" xmlns:xlink="http://www.w3.org/1999/xlink" x="0px" y="0px"
	 width="794px" height="173.986px" viewBox="0 0 794 173.986" enable-background="new 0 0 794 173.986" xml:space="preserve">
<g>
	<defs>
		<rect id="SVGID_1_" width="794" height="173.986"/>
	</defs>
	<clipPath id="SVGID_2_">
		<use xlink:href="#SVGID_1_"  overflow="visible"/>
	</clipPath>
	<g clip-path="url(#SVGID_2_)">
		<defs>
			<polygon id="SVGID_3_" points="794,-713.813 0,-713.378 0,379.221 794,378.786 			"/>
		</defs>
		<clipPath id="SVGID_4_">
			<use xlink:href="#SVGID_3_"  overflow="visible"/>
		</clipPath>
		<path clip-path="url(#SVGID_4_)" fill="none" stroke="#124294" stroke-width="0.6" stroke-miterlimit="10" d="M2158.62,278.144
			c-57.443-43.068-123.604-80.319-190.338-108.652C1752.735,77.98,1522.438,57.468,1309.723,60.289
			c-205.436,2.723-405.165,19.038-612.125,18.096c-203.89-0.931-413.865-15.47-625.512-59.384
			C-47.113-5.732-166.715-39.492-282.132-83.261l0.811-2.186"/>
		<path clip-path="url(#SVGID_4_)" fill="none" stroke="#7AB929" stroke-width="0.6" stroke-miterlimit="10" d="M2127.753,361.232
			c-47.645-39.775-101.999-75.654-159.086-105.577c-204.22-107.044-435.745-147.027-651.334-156.904
			c-209.243-9.587-412.432,0.373-620.574-5.457C491.56,87.547,281.565,69.991,70.284,24.239
			C-48.707-1.525-168.099-36.009-283.231-80.304l1.557-4.192"/>
		<path clip-path="url(#SVGID_4_)" fill="none" stroke="#1E96B5" stroke-width="1.5" stroke-miterlimit="10" d="M2083.882,479.333
			c-41.71-41.872-89.756-81.063-142.491-116.071c-190.309-126.332-418.563-188.198-640.129-212.447
			c-212.862-23.295-421.313-23.339-632.18-37.555C462.356,99.324,252.153,75.401,41.984,24.472
			C-67.96-2.171-177.907-35.991-284.11-77.939"/>
		<path clip-path="url(#SVGID_4_)" fill="none" stroke="#B3CC2A" stroke-width="0.6" stroke-miterlimit="10" d="M2042.366,591.096
			c-32.757-41.018-70.507-80.642-113.496-118.043c-77.545-67.463-170.03-126.389-270.938-171.061
			c-109.225-48.353-225.717-78.033-340.663-97.962c-218.936-37.96-436.092-47.596-652.846-69.641
			C452.477,112.835,238.033,83.373,24.604,27.271C-80.025-0.233-184.383-33.97-285.259-74.844"/>
		<path clip-path="url(#SVGID_4_)" fill="none" stroke="#DE1C19" stroke-width="0.6" stroke-miterlimit="10" d="M2004.645,692.639
			c-23.131-37.642-49.876-74.791-81.365-111.166c-61.01-70.474-137.438-136.412-227.311-189.244
			c-106.73-62.742-228.368-103.683-349.01-132.084c-115.996-27.308-232.273-43.99-347.872-59.79
			c-110.179-15.061-220.17-28.558-330.321-43.392C449.123,127.39,227.461,92.229,8.013,30.15
			C-91.492,2-190.629-31.56-286.542-71.395"/>
	</g>
</g>
</svg>
