<?xml version="1.0" encoding="utf-8"?>
<!-- Generator: Adobe Illustrator 21.1.0, SVG Export Plug-In . SVG Version: 6.00 Build 0)  -->
<svg version="1.1" id="Layer_1" xmlns="http://www.w3.org/2000/svg" xmlns:xlink="http://www.w3.org/1999/xlink" x="0px" y="0px"
	 width="678px" height="332px" viewBox="0 0 678 332" style="enable-background:new 0 0 678 332;" xml:space="preserve">
<style type="text/css">
	.st0{fill:#004D9F;}
	.st1{fill:#004E9D;}
	.st2{fill:#3773B6;}
	.st3{fill:#3FBCBC;}
	.st4{fill:#548D34;}
	.st5{fill:#A8CF43;}
	.st6{fill:#B8D43B;}
	.st7{fill:#E12926;}
	.st8{fill:#76BD42;}
	.st9{fill:#3094D1;}
	.st10{fill:#1B95B0;}
</style>
<g id="XMLID_101_">
	<g id="XMLID_156_">
		<path id="XMLID_157_" class="st0" d="M110.7,43.1c0-2-1.1-4.3-6.3-4.3c-4.8,0-10,3.7-10,11.1c0,3.4,1.5,5.8,6.5,5.8
			c2.3,0,4.9-0.4,7.1-1.1v-4.4c-1.7,0.6-3.5,1-5.2,1c-1.9,0-2.3-0.4-2.3-1.3v-0.4C106.2,49.3,110.7,47.5,110.7,43.1z M103.8,43
			c0.7,0,1.1,0.3,1.1,0.9c0,1.5-1.8,2-4,2C101.3,44.5,102.2,43,103.8,43z"/>
	</g>
	<g id="XMLID_152_">
		<path id="XMLID_153_" class="st0" d="M127.2,43.1c0-2-1.1-4.3-6.3-4.3c-4.8,0-10,3.7-10,11.1c0,3.4,1.5,5.8,6.5,5.8
			c2.3,0,4.8-0.4,7.1-1.1v-4.4c-1.7,0.6-3.5,1-5.2,1c-1.9,0-2.3-0.4-2.3-1.3v-0.4C122.8,49.3,127.2,47.5,127.2,43.1z M120.3,43
			c0.7,0,1.1,0.3,1.1,0.9c0,1.5-1.8,2-4,2C117.9,44.5,118.7,43,120.3,43z"/>
	</g>
	<g id="XMLID_148_">
		<path id="XMLID_149_" class="st0" d="M199.3,43.3c0-1.9-1.1-4.3-6.2-4.3c-4.7,0-9.8,3.6-9.8,10.9c0,3.4,1.5,5.7,6.4,5.7
			c2.3,0,4.7-0.4,6.9-1.1v-4.3c-1.7,0.6-3.5,1-5.1,1c-1.8,0-2.3-0.4-2.3-1.2v-0.4C194.9,49.4,199.3,47.7,199.3,43.3z M192.5,43.2
			c0.7,0,1,0.3,1,0.8c0,1.5-1.7,2-3.9,2C190.1,44.7,190.9,43.2,192.5,43.2z"/>
	</g>
	<g id="XMLID_144_">
		<path id="XMLID_145_" class="st0" d="M215.4,43.2c0-2-1.1-4.3-6.2-4.3c-4.7,0-9.9,3.6-9.9,11c0,3.4,1.5,5.7,6.4,5.7
			c2.3,0,4.8-0.4,7-1.1v-4.4c-1.7,0.6-3.5,1-5.1,1c-1.8,0-2.3-0.4-2.3-1.3v-0.4C211.1,49.4,215.4,47.6,215.4,43.2z M208.6,43.1
			c0.7,0,1,0.3,1,0.9c0,1.5-1.7,2-3.9,2C206.2,44.6,207.1,43.1,208.6,43.1z"/>
	</g>
	<path id="XMLID_142_" class="st0" d="M230.7,54.3c0,0-0.6,0-1.8,0.2c-1.3,0.2-4.5,0.8-4.5,0.8l2-9.8c0.2-1.2,0.1-1.6-0.3-1.6
		c-1.1,0-3.5,3.2-4.2,6.6l-1,4.8h-6.2l1.7-8.4c0.5-2.6,1-5.2,1.4-7.7l6-0.2c-0.2,0.8-0.5,2-1,3.2h0.1c1.5-2.1,3.4-3.5,6.2-3.5
		c3.5,0,4.4,2.4,3.8,5.2L230.7,54.3z"/>
	<path id="XMLID_139_" class="st0" d="M90,31.3l-1.5,7.5c-0.5-0.1-0.8-0.1-1-0.1c-7.5,0-11.3,5.4-11.3,11.7c0,3.5,1.5,5.3,4.3,5.3
		c2.4,0,4.4-1.2,6-3.5h0.1c-0.5,1.1-0.8,2-1,3h5.9c0.3-2,0.7-3.9,1-5.8l3-14.6 M87.4,44.2c-0.6,2.7-2.9,6.3-4.2,6.3
		c-0.5,0-0.7-0.4-0.7-1.3c0-2.5,1.8-5.6,3.8-5.9c0.5-0.1,0.8,0.1,1.2,0.2L87.4,44.2z"/>
	<path id="XMLID_136_" class="st0" d="M131.7,59.4l1-3.8c0.5,0.1,0.8,0.1,1,0.1c7.5,0,11.3-5.4,11.3-11.7c0-3.5-1.5-5.3-4.3-5.3
		c-2.4,0-4.4,1.2-6,3.5h-0.1c0.5-1.1,0.8-2,1.1-3h-6c-0.4,2.5-0.9,5.1-1.4,7.7l-3.2,16l0.2-0.2C125.3,62.6,128.5,60.4,131.7,59.4z
		 M133.8,50.1c0.6-2.7,2.9-6.3,4.2-6.3c0.5,0,0.7,0.4,0.7,1.3c0,2.5-1.8,5.6-3.9,5.9c-0.5,0.1-0.8-0.1-1.2-0.2L133.8,50.1z"/>
	<path id="XMLID_135_" class="st0" d="M148.6,51c-0.7,0-1.7-0.2-2.4-0.5l-3.6,4.7c3-0.7,8.9-1.6,12.2-1.7c1.3-1.1,1.8-2.5,1.8-3.8
		c0-3.4-3.4-4.7-3.4-5.9c0-0.6,0.5-0.8,1.6-0.8c0.6,0,1.3,0.1,1.9,0.3l1.1-4.4c-0.9-0.1-1.9-0.2-2.9-0.2c-5.5,0-8.2,2.5-8.2,5.7
		c0,3.7,3.3,4.3,3.3,5.8C150.2,50.7,149.7,51,148.6,51z"/>
	<path id="XMLID_134_" class="st0" d="M175.2,55.1l1.6,0.2l0.7-3.3c1.4-6.8,3.7-8.2,5.3-7.6l2.3-5.6c-3.1-0.2-4.7,1-6.4,3.6h-0.1
		c0.5-1.2,0.8-2.3,1-3.3h-5.9c-0.4,2.5-0.9,5.1-1.4,7.7l-1.5,7.6C172.3,54.6,173.5,54.8,175.2,55.1z"/>
	<path id="XMLID_133_" class="st0" d="M168.6,54.1l0.7-4c-0.7,0.2-1.8,0.4-2.5,0.4c-1.4,0-2.2-0.7-2.2-2c0-2.1,1.1-4.6,3.6-4.6
		c0.7,0,1.7,0.2,2.3,0.4l1-5.2c-1-0.2-2-0.3-3.1-0.3c-6.3,0-10.4,4.8-10.4,11c0,1.5,0.3,2.8,1.1,3.8
		C162.4,53.5,165.6,53.7,168.6,54.1z"/>
</g>
<g id="XMLID_1530_">
	<g id="XMLID_1655_">
		<path class="st1" d="M286.7,224.6c-6.2,0-12-2-16.4-5.7c-4.2-3.5-6.7-8.2-7.1-13.2c-1-11.6,9.1-22.1,22.6-23.4
			c7.1-0.7,14.1,1.3,19.1,5.6c4.2,3.5,6.7,8.2,7.1,13.2l0,0c1,11.6-9.1,22.1-22.6,23.4C288.5,224.5,287.6,224.6,286.7,224.6z
			 M288.5,182.9c-0.9,0-1.7,0-2.6,0.1c-13,1.2-22.9,11.4-21.9,22.6c0.4,4.8,2.8,9.4,6.8,12.7c4.9,4.1,11.7,6,18.6,5.4
			c13-1.2,22.9-11.4,21.9-22.6l0,0c-0.4-4.9-2.8-9.4-6.8-12.7C300.1,184.9,294.5,182.9,288.5,182.9z"/>
	</g>
	<g id="XMLID_1652_">
		<path class="st2" d="M287.1,227.8c-13.6,0-25.4-6.2-29.8-17.1c-6.2-15.5,5-34.8,25.1-42.8c9.7-3.9,20-4.7,29-2.1
			c9,2.6,15.7,8.1,18.7,15.7c3,7.5,2.1,16.2-2.7,24.3c-4.7,8.1-12.7,14.7-22.4,18.6C299.1,226.6,293,227.8,287.1,227.8z M300.5,165
			c-5.8,0-11.9,1.2-17.8,3.5c-19.7,7.9-30.7,26.7-24.7,41.8c6.1,15.1,27.1,21,46.7,13.1c9.6-3.8,17.4-10.3,22-18.2
			c4.6-7.9,5.6-16.3,2.6-23.6l0,0c-2.9-7.3-9.4-12.7-18.2-15.2C307.9,165.5,304.2,165,300.5,165z"/>
	</g>
	<g id="XMLID_1651_">
		<path class="st3" d="M285.5,236.8c-23.8,0-43.6-13.2-45.7-31.5c-2.3-20.2,17.8-39.1,44.8-42.1c27-3,50.7,10.9,53,31.1l0,0
			c1.1,9.8-3,19.6-11.5,27.5c-8.5,7.9-20.3,13.1-33.3,14.5C290.3,236.7,287.9,236.8,285.5,236.8z M291.9,163.6
			c-2.4,0-4.8,0.1-7.2,0.4c-26.5,3-46.3,21.4-44.1,41.2c2.2,19.7,25.6,33.4,52.1,30.4c12.9-1.4,24.5-6.5,32.9-14.3
			c8.3-7.8,12.3-17.3,11.2-26.9l0,0C334.8,176.5,315.3,163.6,291.9,163.6z"/>
	</g>
	<g id="XMLID_1650_">
		<path class="st4" d="M309.9,232.3c-13.7,0-26.5-4-36.2-11.2c-9.7-7.3-15.1-16.9-15.1-27.2c0-21.2,23-38.5,51.3-38.5
			c0,0,0.1,0,0.1,0c13.7,0,26.5,4,36.2,11.2c9.7,7.3,15.1,16.9,15.1,27.2l0,0C361.4,214.9,338.3,232.2,309.9,232.3
			C310,232.3,309.9,232.3,309.9,232.3z M310,156.1C310,156.1,309.9,156.1,310,156.1c-28,0-50.7,16.9-50.6,37.7
			c0,10,5.3,19.5,14.8,26.6c9.6,7.1,22.2,11,35.7,11c0,0,0.1,0,0.1,0c27.9,0,50.6-17,50.6-37.7l0,0c0-10-5.3-19.5-14.8-26.6
			C336.2,160.1,323.5,156.1,310,156.1z"/>
	</g>
	<g id="XMLID_1649_">
		<path class="st5" d="M246.1,257c-23.6,0-45.4-7.4-60.5-20.8c-11.3-10-17.6-22.3-18.3-35.7c-1.9-34,33.7-63.9,79.3-66.9
			c26.4-1.7,51.1,5.8,67.7,20.6c11.3,10,17.6,22.3,18.3,35.7l0,0c1.9,34-33.7,63.9-79.3,66.9C251,256.9,248.5,257,246.1,257z
			 M253.6,134.2c-2.3,0-4.6,0.1-6.9,0.2c-45.2,2.9-80.4,32.5-78.6,66c0.7,13.1,7,25.3,18.1,35.1c16.2,14.4,41.4,22.1,67.2,20.4
			c45.2-2.9,80.4-32.5,78.6-66l0,0c-0.7-13.1-7-25.3-18.1-35.2C299.1,141.7,276.9,134.2,253.6,134.2z"/>
	</g>
	<g id="XMLID_1648_">
		<path class="st1" d="M264.6,234c-2.6,0-5.2-0.1-7.8-0.4c-19.5-1.8-37.4-10.5-47.9-23.2c-7.2-8.7-10.4-18.5-9.5-28.4
			c2.5-25.2,32.2-43.2,66.2-40c19.5,1.8,37.4,10.5,47.8,23.2c7.2,8.7,10.4,18.5,9.5,28.4l0,0C320.8,216.9,295.3,234,264.6,234z
			 M257.9,142.5c-30.3,0-55.4,16.8-57.6,39.7c-0.9,9.7,2.3,19.3,9.3,27.8c10.4,12.5,28,21.1,47.3,22.9c33.6,3.1,62.9-14.5,65.3-39.3
			c0.9-9.7-2.3-19.3-9.3-27.8c-10.3-12.5-28-21.1-47.3-22.9C263.1,142.6,260.5,142.5,257.9,142.5z"/>
	</g>
	<g id="XMLID_1647_">
		<path class="st6" d="M293.4,220.8c-13.4,0-24.3-6.6-25.4-15.9c-1.2-10.4,10.4-20.2,25.8-21.9c15.4-1.7,28.8,5.3,30,15.7v0
			c1.2,10.4-10.4,20.2-25.8,21.9C296.4,220.7,294.9,220.8,293.4,220.8z M298.4,183.5c-1.5,0-3,0.1-4.5,0.3
			c-14.9,1.7-26.2,11.1-25.1,21c1.1,9.9,14.2,16.6,29.1,14.9c14.9-1.7,26.2-11.1,25.1-21v0C322,189.8,311.4,183.5,298.4,183.5z"/>
	</g>
	<g id="XMLID_1646_">
		<path class="st3" d="M290.2,219.4c-5.2,0-10.1-1.7-13.8-4.8c-3.5-2.9-5.6-6.8-6-11.1c-0.8-9.8,7.7-18.6,18.9-19.6
			c6-0.6,11.8,1.1,16,4.7c3.5,2.9,5.6,6.8,6,11.1c0.8,9.8-7.7,18.6-18.9,19.6C291.7,219.3,290.9,219.4,290.2,219.4z M291.7,184.5
			c-0.7,0-1.4,0-2.2,0.1c-10.9,1-19,9.5-18.2,18.8c0.3,4,2.4,7.8,5.7,10.5c4.1,3.4,9.7,5,15.5,4.5c10.9-1,19-9.5,18.2-18.8l0,0
			c-0.3-4-2.4-7.8-5.7-10.5C301.4,186.2,296.6,184.5,291.7,184.5z"/>
	</g>
	<g id="XMLID_1645_">
		<path class="st7" d="M291.4,218.3c-5.4,0-10.6-1.8-14.6-5c-3.7-3.1-5.9-7.2-6.3-11.7c-0.9-10.3,8.1-19.6,20-20.7
			c6.3-0.6,12.5,1.2,16.9,4.9c3.7,3.1,5.9,7.2,6.3,11.7l0,0c0.9,10.3-8.1,19.6-20,20.7C293,218.3,292.2,218.3,291.4,218.3z
			 M292.9,181.5c-0.8,0-1.5,0-2.3,0.1c-11.5,1.1-20.1,10-19.3,19.9c0.4,4.3,2.5,8.2,6,11.2c4.3,3.6,10.3,5.3,16.3,4.7
			c11.5-1.1,20.1-10,19.3-19.9c-0.4-4.3-2.5-8.2-6-11.2C303.2,183.2,298.2,181.5,292.9,181.5z"/>
	</g>
	<g id="XMLID_1644_">
		<path class="st3" d="M292.1,209c-3.8,0-7.4-1.2-10.1-3.5c-2.6-2.1-4.1-5-4.4-8.1c-0.6-7.2,5.6-13.6,13.9-14.4
			c4.4-0.4,8.6,0.8,11.7,3.4c2.6,2.1,4.1,5,4.4,8.1c0.6,7.2-5.6,13.6-13.9,14.4C293.2,209,292.6,209,292.1,209z M293.1,183.7
			c-0.5,0-1,0-1.6,0.1c-7.8,0.7-13.7,6.8-13.2,13.5c0.3,2.9,1.7,5.6,4.1,7.6c2.9,2.4,7,3.6,11.2,3.2c7.8-0.7,13.7-6.8,13.2-13.5l0,0
			c-0.3-2.9-1.7-5.6-4.1-7.6C300.1,184.9,296.7,183.7,293.1,183.7z"/>
	</g>
	<g id="XMLID_1643_">
		<path class="st8" d="M285.4,230.4c-8.4,0-17.1-2.5-25-7.5c-10.2-6.6-17.5-16.7-19.8-27.6c-1.9-9-0.4-17.9,4.4-25.2
			c10.9-16.6,35.6-20,54.9-7.5c10.2,6.6,17.5,16.7,19.8,27.6c1.9,9,0.4,17.9-4.4,25.2C308.9,225.2,297.6,230.4,285.4,230.4z
			 M274.9,155.8c-11.9,0-22.9,5.1-29.2,14.7c-4.6,7-6.1,15.8-4.3,24.6c2.3,10.8,9.4,20.6,19.4,27.1c19,12.2,43.2,9,53.8-7.3
			c4.6-7,6.1-15.8,4.3-24.6c-2.3-10.8-9.4-20.6-19.4-27.1C291.7,158.3,283.1,155.8,274.9,155.8z"/>
	</g>
	<g id="XMLID_1642_">
		<path class="st8" d="M292.7,211.5c-3.4,0-7-1-10.2-3.1c-4.2-2.7-7.1-6.8-8.1-11.3c-0.8-3.7-0.1-7.4,1.8-10.3
			c4.5-6.8,14.5-8.2,22.5-3.1c4.2,2.7,7.1,6.8,8.1,11.3c0.8,3.7,0.1,7.4-1.8,10.3l0,0C302.3,209.4,297.7,211.5,292.7,211.5z
			 M288.5,181.5c-4.7,0-9.1,2-11.6,5.8c-1.8,2.8-2.4,6.2-1.7,9.7c0.9,4.3,3.7,8.2,7.7,10.8c7.6,4.9,17.1,3.6,21.4-2.9
			c1.8-2.8,2.4-6.2,1.7-9.7c-0.9-4.3-3.7-8.2-7.7-10.8C295.2,182.4,291.8,181.5,288.5,181.5z"/>
	</g>
	<g id="XMLID_1641_">
		<path class="st3" d="M251.7,265.9c-13.2,0-25.7-2.9-36.2-9c-14.1-8.2-22.8-20.8-25.3-36.6c-3.3-21.4,5.4-45.3,24-65.8
			c33.3-36.7,88.1-50.5,122.1-30.8l0,0c14.1,8.2,22.8,20.8,25.3,36.6c3.3,21.4-5.4,45.3-24,65.8
			C314.5,251.5,281.3,265.9,251.7,265.9z M300,115.5c-29.3,0-62.4,14.3-85.3,39.5c-18.4,20.3-27.1,44-23.8,65.1
			c2.4,15.6,11,28,24.9,36.1c33.7,19.5,88,5.8,121.1-30.6c18.4-20.3,27.1-44,23.8-65.1c-2.4-15.6-11-28-24.9-36.1l0,0
			C325.5,118.4,313.1,115.5,300,115.5z"/>
	</g>
	<g id="XMLID_1640_">
		<path class="st9" d="M225.3,288.8c-13.2,0-25.7-2.9-36.2-9c-14.1-8.2-22.8-20.8-25.3-36.6c-3.3-21.4,5.4-45.3,24-65.8
			c33.3-36.7,88.1-50.5,122.1-30.8c14.1,8.2,22.8,20.8,25.3,36.6c3.3,21.4-5.4,45.3-24,65.8C288.2,274.4,254.9,288.8,225.3,288.8z
			 M273.6,138.4c-29.3,0-62.4,14.3-85.2,39.5c-18.4,20.3-27.1,44-23.8,65.1c2.4,15.6,11,28,24.9,36.1c10.4,6,22.8,8.9,35.8,8.9
			c29.3,0,62.4-14.3,85.2-39.5c18.4-20.3,27.1-44,23.8-65.1c-2.4-15.6-11-28-24.9-36.1l0,0C299.1,141.3,286.7,138.4,273.6,138.4z"/>
	</g>
	<g id="XMLID_1639_">
		<path class="st1" d="M236.2,283.8c-10.8,0-21.2-2-30.6-6.3c-16-7.2-27.3-20.3-31.7-36.9c-5.7-21.3,0-46.2,15.8-68.3
			c29.1-40.8,83.5-60,121.4-42.9l0,0c16,7.2,27.3,20.3,31.7,36.9c5.7,21.3,0,46.2-15.8,68.3C305.1,265.3,268.9,283.8,236.2,283.8z
			 M280.4,124c-32.5,0-68.4,18.4-90.1,48.8c-15.6,21.9-21.3,46.5-15.6,67.6c4.4,16.3,15.5,29.2,31.3,36.4
			c37.5,17,91.5-2.2,120.4-42.6c15.6-21.9,21.3-46.5,15.6-67.6c-4.4-16.3-15.5-29.2-31.3-36.4C301.4,126,291.1,124,280.4,124z"/>
	</g>
	<g id="XMLID_1638_">
		<path class="st9" d="M233.9,303.8c-48.3,0-89.5-16.9-104.8-47.1c-7.8-15.4-8.2-32.9-1-50.6c13.1-32.3,49-61,96.1-77
			c75.1-25.5,154.7-9.9,177.5,34.9l0,0c7.8,15.4,8.2,32.9,1,50.6c-13.1,32.3-49,61-96.1,77C282.1,299.8,257.1,303.8,233.9,303.8z
			 M296.8,117.6c-23.2,0-48.1,3.9-72.5,12.2c-46.8,15.9-82.5,44.5-95.6,76.6c-7.1,17.4-6.8,34.7,1,49.9
			c22.6,44.4,101.8,59.9,176.5,34.5c46.8-15.9,82.5-44.5,95.6-76.6c7.1-17.4,6.8-34.7-1-49.9l0,0
			C385.7,134.4,344.8,117.6,296.8,117.6z"/>
	</g>
	<g id="XMLID_1637_">
		<path class="st10" d="M241.3,287.9c-9.3,0-18.4-1.2-27.3-3.8c-24.4-7-43.6-23.3-54.1-46c-12.6-27.1-11.6-60.9,2.8-92.6
			C190,85.2,257.4,49,313,64.9l0,0c24.4,7,43.6,23.3,54.1,46c12.6,27.2,11.6,60.9-2.8,92.6C341.4,254.3,290.1,287.9,241.3,287.9z
			 M285.7,62c-48.5,0-99.5,33.5-122.3,84c-14.2,31.5-15.2,65-2.8,91.9c10.4,22.4,29.4,38.6,53.6,45.5
			c55.2,15.8,122.2-20.2,149.4-80.2c14.2-31.5,15.2-65,2.8-91.9C356,88.8,337,72.6,312.8,65.7C304,63.2,294.9,62,285.7,62z"/>
	</g>
	<g id="XMLID_1636_">
		<path class="st1" d="M242.5,265.8c-61.2,0-112.1-28.3-117.3-67.6c-2-14.8,2.7-29.8,13.6-43.5c20.1-25.2,58-42.7,101.5-46.7
			c69.2-6.4,130.2,23.5,136,66.8h0c2,14.8-2.7,29.8-13.6,43.5c-20.1,25.2-58,42.7-101.5,46.7C254.9,265.5,248.6,265.8,242.5,265.8z
			 M259,108c-6.1,0-12.3,0.3-18.6,0.9c-43.3,4-81,21.4-101,46.4c-10.7,13.5-15.4,28.3-13.4,42.9c5.7,42.8,66.3,72.5,135.1,66.1
			c43.3-4,81-21.4,101-46.4c10.7-13.5,15.4-28.3,13.4-42.9C370.3,136,319.8,108,259,108z"/>
	</g>
	<g id="XMLID_1635_">
		<path class="st7" d="M250.9,244.3c-41.2,0-76.2-17-84.4-44c-3.6-11.8-1.8-24.5,5.3-36.5c12.7-21.7,40.5-38.9,74.2-46.2
			c54.2-11.6,106.8,6.6,117.1,40.5c3.6,11.8,1.8,24.5-5.3,36.5c-12.7,21.7-40.5,38.9-74.2,46.2C272.6,243.2,261.5,244.3,250.9,244.3
			z M278.8,115.5c-10.5,0-21.5,1.1-32.5,3.5c-33.4,7.1-60.8,24.2-73.4,45.5c-6.9,11.7-8.7,24-5.2,35.5c8.1,26.4,42.5,43.1,83.1,43.1
			c10.5,0,21.5-1.1,32.5-3.5c33.4-7.1,60.8-24.2,73.4-45.5c6.9-11.7,8.7-24,5.2-35.5l0,0C353.8,132.1,319.5,115.5,278.8,115.5z"/>
	</g>
	<g id="XMLID_1634_">
		<path class="st3" d="M230.7,248.2c-35.7,0-74.7-8.9-110.8-27.2c-49.7-25.2-84.9-63.8-94.3-103.4c-5.7-24.3-1.4-47.1,12.6-66
			C76.1,0.3,174.5-7.2,257.4,34.8c49.7,25.2,84.9,63.8,94.3,103.4c5.7,24.3,1.4,47.1-12.6,66v0C317.7,233.2,277,248.2,230.7,248.2z
			 M146.6,8.4c-46.1,0-86.5,14.9-107.8,43.7C25,70.8,20.7,93.4,26.4,117.4c9.3,39.4,44.4,77.8,93.8,102.9
			c82.6,41.9,180.5,34.5,218.3-16.5v0c13.8-18.7,18.2-41.3,12.5-65.3c-9.3-39.4-44.4-77.8-93.8-102.9
			C221.1,17.3,182.2,8.4,146.6,8.4z"/>
	</g>
	<g id="XMLID_1633_">
		<path class="st5" d="M351.4,325.4c-9.1,0-18.4-0.4-27.8-1.3c-66-6-123.4-32.3-153.5-70.3c-16.2-20.4-23.1-42.9-19.9-65.1
			C159.4,123.7,252.1,78.5,356.8,88c66,6,123.4,32.3,153.5,70.3c16.2,20.4,23.1,42.9,19.9,65.1l0,0
			C521.9,282.6,444.3,325.4,351.4,325.4z M329,87.6c-92.5,0-169.7,42.5-178,101.3c-3.1,21.9,3.7,44.2,19.8,64.5
			c30,37.8,87.1,64,152.9,70c104.4,9.5,196.7-35.4,205.8-100c3.1-21.9-3.7-44.2-19.8-64.5c-30-37.8-87.1-64-152.9-70
			C347.4,88,338.1,87.6,329,87.6z"/>
	</g>
	<g id="XMLID_1632_">
		<path class="st5" d="M221.7,307.3c-72.4,0-133.7-28.8-150-75.9c-7.3-21.3-4.8-44.3,7.4-66.6c22.1-40.5,72.2-73.6,134.1-88.7
			c99.2-24.2,197.1,6.2,218.3,67.5c7.3,21.3,4.8,44.3-7.4,66.6C402,250.8,351.8,283.9,290,299C266.8,304.6,243.7,307.3,221.7,307.3z
			 M281.6,68.7c-22,0-45,2.7-68.2,8.3c-61.7,15-111.6,48-133.6,88.3c-12.1,22.1-14.6,44.9-7.4,65.9c21,61,118.5,91.1,217.3,67
			c61.7-15,111.6-48,133.6-88.3c12.1-22.1,14.6-44.9,7.4-65.9C414.6,97.3,353.6,68.7,281.6,68.7z"/>
	</g>
	<g id="XMLID_1631_">
		<path class="st10" d="M328.2,313.8c-11.5,0-23.3-0.8-35.2-2.4c-96.7-12.8-173.4-74.4-170.9-137.5l0,0
			c0.9-22.1,11.4-42.3,30.4-58.3c33.8-28.5,89.6-40.7,149.4-32.8c96.7,12.8,173.4,74.4,171,137.5c-0.8,22.1-11.4,42.3-30.4,58.3
			C415.4,301.3,374.2,313.8,328.2,313.8z M122.9,174c-2.4,62.6,74,123.9,170.3,136.6c11.9,1.6,23.7,2.3,35.1,2.3
			c45.8,0,86.8-12.3,113.7-35c18.9-15.9,29.3-35.9,30.1-57.7c2.4-62.6-74-123.9-170.3-136.6c-59.6-7.9-115.2,4.3-148.8,32.7
			C134.1,132.1,123.7,152.1,122.9,174L122.9,174z"/>
	</g>
	<g id="XMLID_1630_">
		<path class="st1" d="M313.5,291c-13.5,0-27.4-1.2-41.5-3.6c-52.2-9-95.8-33.6-116.7-65.8c-11.3-17.4-14.9-36-10.5-53.6
			c13-51.4,91.2-81.5,174.3-67.1c52.2,9,95.8,33.6,116.7,65.8c11.3,17.4,14.9,36,10.5,53.6C435.6,263,379.8,291,313.5,291z
			 M277.7,98.1c-65.8,0-121.3,27.8-132,70.1c-4.4,17.4-0.8,35.7,10.4,52.9c20.8,32,64.2,56.5,116.1,65.5
			c82.7,14.3,160.5-15.5,173.4-66.5c4.4-17.4,0.8-35.7-10.4-52.9c-20.8-32-64.2-56.5-116.1-65.5C305,99.3,291.1,98.1,277.7,98.1z"/>
	</g>
	<g id="XMLID_1629_">
		<path class="st3" d="M270.1,265c-19.8,0-40.6-4.6-59.6-14.2c-27.2-13.8-46.1-35.3-51.7-59.2c-4.2-17.7-0.8-34.7,10-49.2
			c25.9-35,86.6-43.3,135.5-18.6c27.2,13.8,46.1,35.3,51.7,59.2c4.2,17.7,0.8,34.7-10,49.2l-0.3-0.2l0.3,0.2
			C330.2,253.5,301.3,265,270.1,265z M244.6,110.3c-31,0-59.6,11.3-75.2,32.5c-10.6,14.3-14,31.1-9.8,48.6
			c5.6,23.6,24.3,45,51.3,58.7c18.9,9.5,39.5,14.1,59.2,14.1c31,0,59.6-11.3,75.2-32.5c10.6-14.3,14-31.1,9.8-48.6
			c-5.6-23.6-24.3-45-51.3-58.7C285,114.9,264.3,110.3,244.6,110.3z"/>
	</g>
	<g id="XMLID_1628_">
		<path class="st1" d="M567.1,197.6c-4.1,0-8.1-1.4-11-3.9c-2.7-2.3-4.4-5.5-4.7-8.8v0c-0.6-7.7,6.2-14.6,15.1-15.4
			c4.7-0.4,9.3,1,12.6,3.8c2.7,2.3,4.4,5.5,4.7,8.8c0.6,7.7-6.2,14.6-15.1,15.4C568.2,197.6,567.6,197.6,567.1,197.6z M552.2,184.8
			c0.2,3.2,1.8,6.1,4.4,8.3c3.2,2.7,7.6,4,12.1,3.6c8.5-0.7,15-7.3,14.4-14.6c-0.2-3.2-1.8-6.1-4.4-8.3c-3.2-2.7-7.6-4-12.1-3.6
			C558.1,171,551.7,177.5,552.2,184.8L552.2,184.8z"/>
	</g>
	<g id="XMLID_1627_">
		<path class="st3" d="M552.7,210.1c-7,0-13.6-1.7-19-4.9c-6.6-3.9-10.6-9.7-11.3-16.2l0,0c-1.4-13.4,12-25.7,29.8-27.6
			c17.8-1.8,33.4,7.5,34.8,20.9c0.7,6.5-2.1,12.9-7.7,18.1c-5.6,5.2-13.5,8.5-22.1,9.4C555.7,210,554.2,210.1,552.7,210.1z
			 M556.7,162c-1.4,0-2.9,0.1-4.4,0.2c-17.4,1.8-30.4,13.8-29.1,26.7l0,0c0.6,6.2,4.5,11.8,10.9,15.6c6.4,3.8,14.6,5.5,23,4.6
			c8.4-0.9,16.1-4.1,21.6-9.2c5.5-5,8.1-11.2,7.5-17.5C585,170.6,572.2,162,556.7,162z"/>
	</g>
	<g id="XMLID_1626_">
		<path class="st3" d="M564.9,198.4c-8.2,0-15-4.6-15.6-10.9l0,0c-0.7-6.9,6.2-13.3,15.3-14.2c4.4-0.5,8.7,0.4,12.1,2.4
			c3.4,2,5.5,5,5.8,8.4c0.3,3.4-1.1,6.7-4,9.4c-2.9,2.7-6.9,4.4-11.3,4.8C566.5,198.4,565.7,198.4,564.9,198.4z M550.1,187.4
			c0.7,6.5,8.3,11,17,10.1c4.2-0.4,8.1-2.1,10.9-4.6c2.7-2.5,4.1-5.6,3.7-8.7c-0.3-3.1-2.3-5.9-5.4-7.8c-3.2-1.9-7.3-2.7-11.6-2.3
			C556,175,549.4,181,550.1,187.4L550.1,187.4z"/>
	</g>
	<g id="XMLID_1622_">
		<path class="st1" d="M538.9,211.9c-14.3,0-26.4-7.3-28.9-18.5l0,0c-1.4-6.6,0.7-13.5,5.9-19.5c5.2-6,12.9-10.3,21.6-12.2
			c8.8-1.9,17.5-1.1,24.8,2.1c7.2,3.3,12,8.7,13.5,15.3c3,13.6-9.4,27.8-27.5,31.8C545.1,211.6,541.9,211.9,538.9,211.9z
			 M510.8,193.3c2.9,13.1,19.6,20.7,37.3,16.9c17.7-3.8,29.8-17.7,26.9-30.8c-1.4-6.3-6-11.6-13-14.8c-7-3.2-15.7-3.9-24.3-2.1
			c-8.6,1.9-16.1,6.1-21.2,12C511.4,180.2,509.4,186.9,510.8,193.3L510.8,193.3z"/>
	</g>
	<g id="XMLID_1621_">
		<path class="st7" d="M553.9,210.2c-2.8,0-5.5-0.4-8-1.1c-6.1-1.8-10.6-5.6-12.4-10.7l0,0c-3.9-10.5,4.3-23.2,18.3-28.4
			c14-5.2,28.5-0.8,32.4,9.7c1.9,5.1,1,10.9-2.5,16.2c-3.5,5.3-9.1,9.6-15.8,12.1C561.9,209.4,557.8,210.2,553.9,210.2z
			 M563.6,168.6c-3.7,0-7.7,0.7-11.6,2.1c-13.6,5-21.6,17.3-17.8,27.3l0,0c1.8,4.9,6,8.5,11.9,10.2c5.9,1.8,12.8,1.4,19.4-1.1
			c6.6-2.4,12.1-6.6,15.4-11.8c3.3-5.2,4.2-10.7,2.4-15.5C580.7,172.7,572.9,168.6,563.6,168.6z"/>
	</g>
	<g id="XMLID_1620_">
		<path class="st5" d="M548.4,211.3C548.4,211.3,548.4,211.3,548.4,211.3c-9.2,0-17.8-2.7-24.3-7.5c-6.5-4.9-10.1-11.4-10.1-18.3
			c0-6.9,3.6-13.4,10.1-18.3c6.5-4.9,15.1-7.5,24.3-7.5c0,0,0,0,0,0c9.2,0,17.8,2.7,24.3,7.5c6.5,4.9,10.1,11.4,10.1,18.3
			c0,6.9-3.6,13.4-10.1,18.3C566.3,208.7,557.6,211.3,548.4,211.3z M548.4,160.5c-9,0-17.5,2.6-23.8,7.4c-6.3,4.7-9.8,11-9.8,17.7
			l0,0c0,6.7,3.5,12.9,9.8,17.7c6.4,4.8,14.8,7.4,23.9,7.4c0,0,0,0,0,0c9,0,17.5-2.6,23.8-7.4c6.3-4.7,9.8-11,9.8-17.7
			c0-6.7-3.5-12.9-9.8-17.7C565.9,163.1,557.5,160.5,548.4,160.5C548.4,160.5,548.4,160.5,548.4,160.5z"/>
	</g>
	<g id="XMLID_1618_">
		<path class="st4" d="M553.1,215.1c-0.1,0-0.2,0-0.3,0c-9-0.1-17.5-2.8-23.9-7.6c-6.4-4.8-9.9-11.3-9.8-18.1v0
			c0.1-13.9,15.2-25.2,33.8-25.2c0.1,0,0.2,0,0.3,0c9,0.1,17.5,2.8,23.9,7.6c6.4,4.9,9.9,11.3,9.8,18.1c0,6.8-3.6,13.2-10.1,17.9
			C570.4,212.5,562,215.1,553.1,215.1z M519.8,189.4c0,6.6,3.3,12.7,9.5,17.4c6.2,4.7,14.5,7.4,23.4,7.4c0.1,0,0.2,0,0.3,0
			c8.7,0,17-2.5,23.2-7.1c6.3-4.6,9.7-10.7,9.8-17.3c0-6.6-3.3-12.7-9.5-17.4c-6.2-4.7-14.5-7.4-23.4-7.4c-0.1,0-0.2,0-0.3,0
			C534.6,165,519.9,175.9,519.8,189.4L519.8,189.4z"/>
	</g>
	<g id="XMLID_1617_">
		<path class="st6" d="M560.6,197.1c-3.9,0-7.5-0.8-10.5-2.4c-3.8-2-6-4.9-6.4-8.3c-0.3-3.4,1.3-6.7,4.6-9.4c3.2-2.7,7.7-4.4,12.6-5
			c4.9-0.5,9.7,0.3,13.4,2.3c3.8,2,6,4.9,6.4,8.3c0.7,6.9-7,13.3-17.2,14.4C562.5,197.1,561.6,197.1,560.6,197.1z M563.8,172.7
			c-0.9,0-1.8,0-2.8,0.1c-4.8,0.5-9.1,2.2-12.2,4.8c-3.1,2.5-4.6,5.7-4.3,8.7l0,0c0.3,3.1,2.4,5.8,6,7.7c3.6,1.9,8.2,2.7,12.9,2.2
			c9.8-1,17.2-7.1,16.5-13.5c-0.3-3.1-2.4-5.8-6-7.7C571,173.5,567.5,172.7,563.8,172.7z"/>
	</g>
	<g id="XMLID_1616_">
		<path class="st1" d="M565.3,206.2c-8.2,0-15.8-4.8-19-12.8l0,0c-4.1-10.4,1.2-22.2,11.7-26.4c5.1-2,10.7-1.9,15.7,0.2
			c5,2.1,8.9,6.1,10.8,11.1c4.1,10.4-1.2,22.2-11.7,26.4C570.4,205.7,567.9,206.2,565.3,206.2z M547.1,193.1
			c3.9,10,15.4,14.9,25.5,10.9c10.1-4,15.2-15.3,11.3-25.3c-1.9-4.8-5.6-8.6-10.4-10.7c-4.8-2.1-10.2-2.1-15.1-0.2
			C548.3,171.8,543.2,183.1,547.1,193.1L547.1,193.1z"/>
	</g>
	<g id="XMLID_1615_">
		<path class="st2" d="M550.4,204.6c-14.1,0-25.5-8.7-25.7-19.7l0,0c-0.2-11.1,11.3-20.3,25.6-20.5c0.2,0,0.4,0,0.6,0
			c14.1,0,25.5,8.7,25.7,19.7c0.1,5.4-2.5,10.5-7.4,14.4c-4.8,3.9-11.3,6-18.2,6.2C550.7,204.6,550.5,204.6,550.4,204.6z
			 M525.4,184.9c0.2,10.6,11.6,19.1,25.5,18.9c6.7-0.1,13-2.2,17.7-6c4.7-3.7,7.2-8.6,7.1-13.7c-0.2-10.6-11.6-19.1-25.5-18.9
			C536.4,165.4,525.3,174.3,525.4,184.9L525.4,184.9z"/>
	</g>
	<g id="XMLID_1614_">
		<path class="st7" d="M565.5,200.8c-4.5,0-8.7-1.5-11.9-4.2c-3-2.5-4.7-5.9-5-9.5c-0.6-8.3,6.7-15.8,16.3-16.6
			c5.1-0.4,10.1,1.1,13.7,4.1c3,2.5,4.7,5.9,5,9.5c0.6,8.3-6.7,15.8-16.3,16.6C566.7,200.7,566.1,200.8,565.5,200.8z M566.7,171.1
			c-0.6,0-1.1,0-1.7,0.1c-9.2,0.8-16.2,7.9-15.6,15.8v0c0.3,3.4,1.9,6.6,4.7,9c3.4,2.9,8.2,4.3,13.1,3.9c9.2-0.8,16.2-7.9,15.6-15.8
			c-0.3-3.4-1.9-6.6-4.7-9C575,172.6,570.9,171.1,566.7,171.1z"/>
	</g>
	<g id="XMLID_1576_">
		<path class="st8" d="M563.8,193.7c-3.5,0-6.8-1.2-9.3-3.2c-2.3-2-3.7-4.6-3.9-7.4l0,0c-0.5-6.5,5.2-12.3,12.7-12.9
			c4-0.3,7.8,0.8,10.6,3.2c2.3,2,3.7,4.6,3.9,7.4c0.5,6.5-5.2,12.3-12.7,12.9C564.7,193.7,564.2,193.7,563.8,193.7z M564.7,170.8
			c-0.4,0-0.9,0-1.3,0.1c-7.1,0.6-12.4,6-12,12.1c0.2,2.6,1.5,5.1,3.6,6.9c2.6,2.2,6.3,3.3,10,3c7.1-0.6,12.4-6,12-12.1
			c-0.2-2.6-1.5-5.1-3.6-6.9C571.1,171.9,568,170.8,564.7,170.8z"/>
	</g>
	<g id="XMLID_1574_">
		<path class="st3" d="M564,208c-5.9,0-11.5-1.9-15.6-5.5c-3.9-3.3-6.2-7.7-6.6-12.5c-0.9-10.9,8.8-20.7,21.4-21.8
			c6.7-0.6,13.2,1.4,17.9,5.4c3.9,3.3,6.2,7.7,6.6,12.5c0.9,10.9-8.8,20.7-21.4,21.8C565.6,208,564.8,208,564,208z M565.6,169
			c-0.7,0-1.5,0-2.2,0.1c-12.2,1.1-21.5,10.5-20.7,21v0c0.4,4.5,2.6,8.8,6.3,11.9c4.5,3.9,10.9,5.7,17.3,5.2
			c12.2-1.1,21.5-10.5,20.7-21c-0.4-4.5-2.6-8.8-6.3-11.9C576.6,170.8,571.2,169,565.6,169z"/>
	</g>
	<g id="XMLID_1573_">
		<path class="st7" d="M524.5,227.1c-4.1,0-8.2-0.6-12-1.8h0c-9.4-3-16.6-9.6-20.3-18.5c-4.4-10.7-3.4-23.7,2.7-35.7
			c11.7-22.9,38.6-36,59.9-29.1c9.4,3,16.6,9.6,20.3,18.5c4.4,10.7,3.4,23.7-2.7,35.7C562.8,215,543.1,227.1,524.5,227.1z
			 M512.7,224.5c21,6.8,47.4-6.1,58.9-28.7c6-11.8,7-24.6,2.7-35.1c-3.6-8.7-10.6-15.1-19.8-18.1c-21-6.8-47.4,6.1-58.9,28.7
			c-6,11.8-7,24.6-2.7,35C496.5,215.1,503.6,221.5,512.7,224.5L512.7,224.5z"/>
	</g>
	<g id="XMLID_1571_">
		<path class="st3" d="M509.8,233.3c-32.3,0-59.9-11.4-69.9-31.6l0,0c-5.1-10.2-5.2-21.8-0.4-33.4c8.8-21.2,32.6-39.9,63.6-50.2
			c49.6-16.4,101.9-5.6,116.6,24c5.1,10.2,5.2,21.8,0.4,33.4c-8.8,21.2-32.6,39.9-63.7,50.2C540.8,230.8,524.8,233.3,509.8,233.3z
			 M440.6,201.3c14.6,29.3,66.5,39.8,115.7,23.6c30.8-10.2,54.4-28.8,63.2-49.7c4.7-11.4,4.6-22.7-0.4-32.7
			c-14.6-29.3-66.5-39.8-115.7-23.6c-30.8,10.2-54.4,28.8-63.2,49.7C435.5,179.9,435.7,191.3,440.6,201.3L440.6,201.3z"/>
	</g>
	<g id="XMLID_1564_">
		<path class="st10" d="M516.2,269.9c-6.3,0-12.5-0.8-18.5-2.6l0,0c-16-4.7-28.6-15.6-35.4-30.6c-8.1-18-7.3-40.2,2.3-61
			c18.3-39.6,62.9-63.1,99.4-52.3c16,4.7,28.6,15.6,35.4,30.6c8.1,18,7.3,40.2-2.3,61C581.8,248.1,548.2,269.9,516.2,269.9z
			 M497.9,266.5c36.1,10.7,80.3-12.6,98.5-51.8c9.5-20.6,10.4-42.5,2.3-60.3c-6.7-14.8-19.1-25.5-34.9-30.2
			c-36.2-10.7-80.3,12.6-98.5,51.8c-9.5,20.6-10.4,42.5-2.3,60.3C469.7,251.1,482.1,261.8,497.9,266.5L497.9,266.5z"/>
	</g>
	<g id="XMLID_1551_">
		<path class="st1" d="M530.2,244.9c-42.2,0-77.3-19.7-80.7-46.8l0,0c-1.3-10.1,2-20.3,9.5-29.6c13.8-17.1,39.8-28.7,69.4-31.2
			c47.2-4,88.6,16.8,92.3,46.3c1.3,10.1-2,20.3-9.5,29.6c-13.8,17.1-39.8,28.7-69.4,31.2C537.9,244.8,534,244.9,530.2,244.9z
			 M450.3,198c3.6,29.1,44.6,49.6,91.4,45.6c29.4-2.5,55.2-14.1,68.9-31c7.3-9.1,10.6-19.1,9.3-29c-3.6-29.1-44.7-49.6-91.4-45.6
			c-29.4,2.5-55.2,14.1-68.9,31C452.3,178.1,449.1,188.1,450.3,198L450.3,198z"/>
	</g>
	<g id="XMLID_1547_">
		<path class="st7" d="M521.3,235.2c-27.6,0-50.9-11.5-56.3-29.6l0,0c-2.3-7.9-1.1-16.2,3.7-24.2c8.5-14.2,26.9-25.5,49.2-30
			c35.8-7.3,70.4,5,77,27.4c2.3,7.9,1,16.2-3.7,24.2c-8.5,14.2-26.9,25.5-49.2,30C535,234.5,528.1,235.2,521.3,235.2z M538.7,150.6
			c-6.7,0-13.6,0.7-20.5,2.1c-21.9,4.5-40,15.5-48.3,29.4c-4.6,7.6-5.8,15.6-3.6,23.1l0,0c6.5,21.8,40.3,33.7,75.5,26.5
			c21.9-4.5,40-15.5,48.3-29.4c4.6-7.6,5.8-15.6,3.6-23.1C588.5,161.8,565.7,150.6,538.7,150.6z"/>
	</g>
	<g id="XMLID_1546_">
		<path class="st5" d="M533.4,244.1c-28.9,0-53.8-10.7-62.9-29.6c-4.7-9.7-4.8-20.7-0.2-31.6c8-18.9,28.6-35.5,55.3-44.5
			c43.6-14.6,89.8-4.3,103,22.9c4.7,9.7,4.8,20.7,0.2,31.6c-7.9,18.9-28.6,35.5-55.3,44.5C560,241.9,546.3,244.1,533.4,244.1z
			 M565.7,132.5c-12.8,0-26.5,2.1-39.9,6.6c-26.5,8.9-47,25.4-54.8,44c-4.5,10.7-4.5,21.4,0.1,31c13,26.9,58.8,37,102,22.5
			c26.5-8.9,47-25.3,54.8-44c4.5-10.7,4.5-21.4-0.1-31C618.9,143.1,594.3,132.5,565.7,132.5z"/>
	</g>
	<g id="XMLID_1540_">
		<path class="st1" d="M567.6,260.3c-20.8,0-43.2-4.1-64.7-12.7c-36.5-14.5-63.9-39.2-73.2-66.1c-5.4-15.7-4.3-31,3.4-44.2v0
			c21.4-36.9,87.4-47.6,147.2-23.8c36.5,14.5,63.9,39.2,73.2,66.1c5.4,15.7,4.3,31-3.4,44.2C636.4,247.4,604.4,260.3,567.6,260.3z
			 M433.7,137.8L433.7,137.8c-7.5,13-8.7,28.1-3.3,43.6c9.2,26.6,36.4,51.2,72.7,65.6c59.5,23.7,125.1,13.1,146.2-23.5
			c7.5-13,8.7-28.1,3.3-43.5c-9.2-26.6-36.4-51.2-72.7-65.6C520.5,90.6,454.9,101.2,433.7,137.8L433.7,137.8z"/>
	</g>
	<g id="XMLID_1539_">
		<path class="st10" d="M529.7,257.3c-8,0-16.2-0.6-24.6-1.8c-63.5-8.9-113.7-50-111.7-91.4c0.7-14.6,7.7-27.8,20.4-38.3
			c22.4-18.5,59.2-26.3,98.5-20.8c63.5,8.9,113.7,50,111.7,91.4l0,0c-0.7,14.6-7.7,27.8-20.4,38.3
			C586,249.4,559.4,257.3,529.7,257.3z M487.7,104.1c-29.5,0-55.9,7.9-73.4,22.4c-12.5,10.3-19.4,23.4-20.1,37.7
			c-1.9,41.1,47.9,81.7,111,90.6c39.1,5.5,75.7-2.2,97.9-20.6c12.5-10.3,19.4-23.4,20.1-37.7c1.9-41.1-47.9-81.7-111-90.6
			C503.8,104.7,495.6,104.1,487.7,104.1z"/>
	</g>
	<g id="XMLID_1533_">
		<path class="st3" d="M549.4,238.9c-18.8,0-38.4-4.4-56.2-13.6c-25.2-13-42.5-33.4-47.7-55.9c-3.9-17-0.2-34.1,10.3-48.1h0
			c25.2-33.6,83.1-41.6,128.9-17.9c25.2,13,42.5,33.4,47.7,55.9c3.9,17,0.2,34.1-10.3,48.1C606.7,227.9,579,238.9,549.4,238.9z
			 M528.5,90.6c-29.4,0-56.8,10.9-72.1,31.2l0,0c-10.4,13.8-14,30.6-10.1,47.4c5.1,22.3,22.3,42.5,47.3,55.4
			c45.5,23.5,102.9,15.6,127.9-17.7c10.4-13.8,14-30.6,10.1-47.4c-5.1-22.3-22.3-42.5-47.3-55.4C566.7,95,547.2,90.6,528.5,90.6z"/>
	</g>
	<g id="XMLID_1532_">
		<path class="st3" d="M543.6,238.3c-13.3,0-27.2-3.1-39.8-9.7c-17.8-9.2-30.1-23.5-33.7-39.3c-2.7-11.7-0.3-22.9,6.8-32.4h0
			c17.2-22.9,57.3-28.1,89.3-11.5c17.8,9.2,30.1,23.5,33.7,39.3c2.7,11.7,0.3,22.9-6.8,32.4C582.7,231,563.9,238.3,543.6,238.3z
			 M477.5,157.4c-7,9.3-9.3,20.3-6.7,31.8c3.5,15.5,15.7,29.6,33.3,38.8c31.7,16.4,71.3,11.3,88.3-11.3c7-9.3,9.3-20.3,6.7-31.8
			c-3.5-15.5-15.7-29.6-33.3-38.8C534.1,129.8,494.5,134.8,477.5,157.4L477.5,157.4z"/>
	</g>
	<g id="XMLID_1531_">
		<path class="st5" d="M511.8,228.8c-10,0-19.5-2.2-27.4-6.9l0,0c-10.3-6.1-16.7-15.6-18.4-27.3c-2.3-15.8,4.4-33.5,18.3-48.4
			c24.9-26.8,65.5-36.6,90.4-21.7c10.3,6.1,16.7,15.6,18.4,27.3c2.3,15.8-4.4,33.5-18.3,48.4C557.7,218.5,533.4,228.8,511.8,228.8z
			 M547.3,118.3c-21.4,0-45.5,10.3-62.4,28.4c-13.8,14.8-20.4,32.2-18.1,47.8c1.6,11.4,7.9,20.7,18,26.7l0,0
			c24.6,14.6,64.7,5,89.4-21.6c13.8-14.8,20.4-32.2,18.1-47.8c-1.6-11.4-7.9-20.7-18-26.7C566.6,120.5,557.2,118.3,547.3,118.3z"/>
	</g>
</g>
</svg>
